{
.appVersion = "3108";
.formatVersion = 3;
DisplayStrings = (
1w2,
"2",
"2",
"2",
"2",
"2",
"2",
"2"
);
axes = (
{
name = Weight;
tag = wght;
}
);
date = "2022-03-07 21:04:22 +0000";
familyName = "2022";
fontMaster = (
{
axesValues = (
0
);
id = m01;
metricValues = (
{
over = 16;
pos = 800;
},
{
over = -16;
},
{
over = -16;
pos = -200;
}
);
name = Min;
userData = {
GSExtrudeAngle = 310;
GSExtrudeDontSubtract = 1;
GSExtrudeOffset = 100;
};
},
{
axesValues = (
1000
);
iconName = Bold;
id = m002;
metricValues = (
{
over = 16;
pos = 800;
},
{
over = -16;
},
{
over = -16;
pos = -200;
}
);
name = Max;
}
);
glyphs = (
{
glyphname = A;
lastChange = "2022-03-07 22:39:01 +0000";
layers = (
{
background = {
shapes = (
{
closed = 1;
nodes = (
(30,225,o),
(-20,172,o),
(-20,108,cs),
(-20,42,o),
(34,-10,o),
(102,-10,cs),
(156,-10,o),
(207,26,o),
(238,102,c),
(271,28,o),
(320,-10,o),
(374,-10,cs),
(442,-10,o),
(497,42,o),
(497,108,cs),
(497,174,o),
(442,226,o),
(374,226,cs),
(370,226,o),
(367,222,o),
(367,218,cs),
(367,214,o),
(370,211,o),
(374,211,cs),
(435,211,o),
(482,167,o),
(482,108,cs),
(482,49,o),
(435,6,o),
(374,6,cs),
(323,6,o),
(277,42,o),
(246,123,c),
(321,333,l),
(409,371,o),
(495,429,o),
(571,429,cs),
(593,429,o),
(611,424,o),
(627,416,c),
(576,373,o),
(561,291,o),
(561,235,cs),
(561,165,o),
(593,109,o),
(641,109,cs),
(687,109,o),
(719,165,o),
(719,235,cs),
(719,291,o),
(704,373,o),
(653,416,c),
(669,424,o),
(688,429,o),
(710,429,cs),
(788,429,o),
(867,367,o),
(952,329,c),
(1026,123,l),
(995,42,o),
(949,6,o),
(898,6,cs),
(837,6,o),
(791,49,o),
(791,108,cs),
(791,167,o),
(837,211,o),
(898,211,cs),
(902,211,o),
(906,214,o),
(906,218,cs),
(906,222,o),
(902,226,o),
(898,226,cs),
(830,226,o),
(776,174,o),
(776,108,cs),
(776,42,o),
(830,-10,o),
(898,-10,cs),
(952,-10,o),
(1001,28,o),
(1034,103,c),
(1066,26,o),
(1116,-10,o),
(1170,-10,cs),
(1238,-10,o),
(1293,42,o),
(1293,108,cs),
(1293,172,o),
(1242,225,o),
(1177,225,cs),
(1173,225,o),
(1170,222,o),
(1170,218,cs),
(1170,214,o),
(1173,210,o),
(1177,210,cs),
(1235,210,o),
(1278,164,o),
(1278,108,cs),
(1278,49,o),
(1231,6,o),
(1170,6,cs),
(1118,6,o),
(1071,41,o),
(1041,126,cs),
(972,321,l),
(1003,309,o),
(1035,301,o),
(1068,301,cs),
(1155,301,o),
(1197,352,o),
(1197,406,cs),
(1197,460,o),
(1152,516,o),
(1068,516,cs),
(1063,516,o),
(1060,512,o),
(1060,508,cs),
(1060,504,o),
(1063,501,o),
(1068,501,cs),
(1144,501,o),
(1182,453,o),
(1182,406,cs),
(1182,359,o),
(1147,316,o),
(1068,316,cs),
(1033,316,o),
(998,326,o),
(965,341,c),
(807,783,l),
(1044,783,ls),
(1105,783,o),
(1152,739,o),
(1152,680,cs),
(1152,621,o),
(1105,578,o),
(1044,578,cs),
(985,578,o),
(942,621,o),
(942,680,cs),
(942,684,o),
(938,688,o),
(934,688,cs),
(930,688,o),
(927,684,o),
(927,680,cs),
(927,614,o),
(978,563,o),
(1044,563,cs),
(1112,563,o),
(1167,614,o),
(1167,680,cs),
(1167,746,o),
(1112,798,o),
(1044,798,cs),
(228,798,ls),
(160,798,o),
(106,746,o),
(106,680,cs),
(106,614,o),
(160,563,o),
(228,563,cs),
(294,563,o),
(346,614,o),
(346,680,cs),
(346,684,o),
(342,688,o),
(338,688,cs),
(334,688,o),
(331,684,o),
(331,680,cs),
(331,621,o),
(287,578,o),
(228,578,cs),
(167,578,o),
(121,621,o),
(121,680,cs),
(121,739,o),
(167,783,o),
(228,783,cs),
(465,783,l),
(309,345,l),
(270,328,o),
(231,316,o),
(193,316,cs),
(133,316,o),
(90,355,o),
(90,408,cs),
(90,461,o),
(133,501,o),
(193,501,cs),
(246,501,o),
(295,463,o),
(295,408,cs),
(295,404,o),
(298,401,o),
(303,401,cs),
(307,401,o),
(310,404,o),
(310,408,cs),
(310,472,o),
(252,516,o),
(193,516,cs),
(127,516,o),
(75,468,o),
(75,408,cs),
(75,348,o),
(127,301,o),
(193,301,cs),
(229,301,o),
(266,311,o),
(302,325,c),
(231,126,ls),
(201,42,o),
(154,6,o),
(102,6,cs),
(41,6,o),
(-5,49,o),
(-5,108,cs),
(-5,164,o),
(37,207,o),
(95,210,c),
(99,211,o),
(102,214,o),
(102,218,cs),
(102,222,o),
(99,225,o),
(95,225,cs)
);
},
{
closed = 1;
nodes = (
(482,783,l),
(790,783,l),
(945,350,l),
(866,388,o),
(789,444,o),
(710,444,cs),
(682,444,o),
(659,437,o),
(640,425,c),
(622,437,o),
(599,444,o),
(571,444,cs),
(494,444,o),
(411,391,o),
(328,353,c)
);
},
{
closed = 1;
nodes = (
(576,292,o),
(590,370,o),
(640,407,c),
(690,370,o),
(704,292,o),
(704,235,cs),
(704,170,o),
(677,124,o),
(641,124,cs),
(603,124,o),
(576,170,o),
(576,235,cs)
);
}
);
};
layerId = m01;
shapes = (
{
alignment = -1;
pos = (-24,0);
ref = Aleft;
},
{
pos = (1296,0);
ref = Aleft;
scale = (-1,1);
},
{
closed = 1;
nodes = (
(641,219,l),
(673,219,o),
(699,261,o),
(699,315,cs),
(699,393,o),
(643,454,o),
(571,454,cs),
(471,454,o),
(357,316,o),
(263,316,cs),
(203,316,o),
(170,355,o),
(170,408,cs),
(170,461,o),
(203,501,o),
(263,501,cs),
(316,501,o),
(355,463,o),
(355,408,cs),
(355,404,o),
(358,401,o),
(363,401,cs),
(367,401,o),
(370,404,o),
(370,408,cs),
(370,472,o),
(322,516,o),
(263,516,cs),
(197,516,o),
(155,468,o),
(155,408,cs),
(155,348,o),
(197,301,o),
(263,301,cs),
(364,301,o),
(478,439,o),
(571,439,cs),
(634,439,o),
(684,384,o),
(684,315,cs),
(684,270,o),
(665,234,o),
(641,234,c)
);
},
{
closed = 1;
nodes = (
(617,234,o),
(598,270,o),
(598,315,cs),
(598,384,o),
(648,439,o),
(711,439,cs),
(804,439,o),
(918,301,o),
(1019,301,cs),
(1085,301,o),
(1127,348,o),
(1127,408,cs),
(1127,468,o),
(1085,516,o),
(1019,516,cs),
(960,516,o),
(912,472,o),
(912,408,cs),
(912,404,o),
(915,401,o),
(919,401,cs),
(924,401,o),
(927,404,o),
(927,408,cs),
(927,463,o),
(966,501,o),
(1019,501,cs),
(1079,501,o),
(1112,461,o),
(1112,408,cs),
(1112,355,o),
(1079,316,o),
(1019,316,cs),
(925,316,o),
(811,454,o),
(711,454,cs),
(639,454,o),
(583,393,o),
(583,315,cs),
(583,261,o),
(609,219,o),
(641,219,c),
(641,234,l)
);
}
);
width = 1272;
},
{
layerId = m002;
shapes = (
{
alignment = -1;
pos = (96,0);
ref = Aleft;
},
{
pos = (1416,0);
ref = Aleft;
scale = (-1,1);
},
{
closed = 1;
nodes = (
(761,109,l),
(805,109,o),
(839,170,o),
(839,248,cs),
(839,358,o),
(774,444,o),
(691,444,cs),
(571,444,o),
(427,316,o),
(303,316,cs),
(243,316,o),
(200,355,o),
(200,408,cs),
(200,461,o),
(243,501,o),
(303,501,cs),
(356,501,o),
(405,463,o),
(405,408,cs),
(405,404,o),
(408,401,o),
(413,401,cs),
(417,401,o),
(420,404,o),
(420,408,cs),
(420,472,o),
(362,516,o),
(303,516,cs),
(237,516,o),
(185,468,o),
(185,408,cs),
(185,348,o),
(237,301,o),
(303,301,cs),
(434,301,o),
(578,429,o),
(691,429,cs),
(765,429,o),
(824,349,o),
(824,248,cs),
(824,179,o),
(796,124,o),
(761,124,c)
);
},
{
closed = 1;
nodes = (
(726,124,o),
(698,179,o),
(698,248,cs),
(698,349,o),
(757,429,o),
(831,429,cs),
(944,429,o),
(1088,301,o),
(1219,301,cs),
(1285,301,o),
(1337,348,o),
(1337,408,cs),
(1337,468,o),
(1285,516,o),
(1219,516,cs),
(1160,516,o),
(1102,472,o),
(1102,408,cs),
(1102,404,o),
(1105,401,o),
(1109,401,cs),
(1114,401,o),
(1117,404,o),
(1117,408,cs),
(1117,463,o),
(1166,501,o),
(1219,501,cs),
(1279,501,o),
(1322,461,o),
(1322,408,cs),
(1322,355,o),
(1279,316,o),
(1219,316,cs),
(1095,316,o),
(951,444,o),
(831,444,cs),
(748,444,o),
(683,358,o),
(683,248,cs),
(683,170,o),
(717,109,o),
(761,109,c),
(761,124,l)
);
}
);
width = 1512;
}
);
unicode = 65;
},
{
glyphname = B;
lastChange = "2022-03-08 22:07:47 +0000";
layers = (
{
layerId = m01;
shapes = (
{
closed = 1;
nodes = (
(46,649,o),
(46,520,o),
(46,445,cs),
(46,363,o),
(46,203,o),
(23,102,c),
(300,13,l),
(293,43,o),
(274,178,o),
(274,440,cs),
(274,722,o),
(298,761,o),
(298,787,c),
(251,598,l),
(290,598,o),
(296,520,o),
(296,421,c),
(459,548,l),
(343,548,o),
(251,576,o),
(251,647,c),
(170,277,l),
(264,277,o),
(347,172,o),
(347,38,c),
(442,156,l),
(309,156,o),
(263,290,o),
(263,328,c),
(23,102,l),
(81,20,o),
(201,-14,o),
(280,-14,cs),
(416,-14,o),
(547,91,o),
(547,236,cs),
(547,316,o),
(496,384,o),
(375,384,c),
(375,364,l),
(445,364,o),
(491,443,o),
(491,562,cs),
(491,731,o),
(387,800,o),
(259,800,cs),
(195,800,o),
(85,783,o),
(20,753,c)
);
}
);
width = 572;
},
{
layerId = m002;
shapes = (
{
closed = 1;
nodes = (
(46,649,o),
(46,520,o),
(46,445,cs),
(46,363,o),
(46,203,o),
(23,102,c),
(300,13,l),
(293,43,o),
(274,178,o),
(274,440,cs),
(274,722,o),
(298,761,o),
(298,787,c),
(251,598,l),
(367,598,o),
(458,520,o),
(458,421,c),
(459,422,l),
(343,422,o),
(251,477,o),
(251,548,c),
(251,277,l),
(345,277,o),
(441,172,o),
(441,38,c),
(442,43,l),
(309,43,o),
(263,217,o),
(263,255,c),
(23,102,l),
(81,20,o),
(201,-14,o),
(280,-14,cs),
(416,-14,o),
(547,91,o),
(547,236,cs),
(547,316,o),
(496,384,o),
(375,384,c),
(375,364,l),
(445,364,o),
(491,443,o),
(491,562,cs),
(491,731,o),
(387,800,o),
(259,800,cs),
(195,800,o),
(85,783,o),
(20,753,c)
);
}
);
width = 572;
}
);
unicode = 66;
},
{
glyphname = C;
lastChange = "2022-03-10 01:10:51 +0000";
layers = (
{
layerId = m01;
shapes = (
{
closed = 1;
nodes = (
(213,800,o),
(40,643,o),
(40,393,cs),
(40,153,o),
(217,-16,o),
(471,-16,cs),
(624,-16,o),
(789,15,o),
(872,59,c),
(872,316,l),
(818,275,o),
(705,252,o),
(569,252,cs),
(454,252,o),
(397,300,o),
(397,398,cs),
(397,495,o),
(457,543,o),
(541,543,cs),
(646,543,o),
(698,479,o),
(698,397,c),
(891,513,l),
(738,583,l),
(649,583,o),
(612,447,o),
(612,361,c),
(868,361,l),
(893,397,o),
(913,468,o),
(913,525,cs),
(913,694,o),
(749,800,o),
(489,800,cs)
);
}
);
width = 953;
},
{
layerId = m002;
shapes = (
{
closed = 1;
nodes = (
(169,800,o),
(40,643,o),
(40,393,cs),
(40,141,o),
(175,-16,o),
(389,-16,cs),
(469,-16,o),
(572,13,o),
(660,59,c),
(660,316,l),
(614,281,o),
(553,249,o),
(502,249,cs),
(432,249,o),
(397,298,o),
(397,397,cs),
(397,495,o),
(442,543,o),
(531,543,cs),
(579,543,o),
(616,502,o),
(616,449,c),
(679,513,l),
(552,583,l),
(437,583,o),
(436,485,o),
(436,361,c),
(656,361,l),
(681,397,o),
(701,468,o),
(701,525,cs),
(701,694,o),
(575,800,o),
(375,800,cs)
);
}
);
width = 741;
}
);
unicode = 67;
},
{
glyphname = D;
lastChange = "2022-03-11 01:31:09 +0000";
layers = (
{
layerId = m01;
shapes = (
{
closed = 1;
nodes = (
(186.441,304.602,o),
(108.5,410.072,o),
(108.5,517,c),
(108.5,621.513,o),
(183.764,722.5,o),
(332,722.5,c),
(617.717,722.5,o),
(781.5,444.952,o),
(781.5,236,c),
(781.5,112.048,o),
(725.717,17.5,o),
(602,17.5,c),
(427.014,17.5,o),
(327.014,167.5,o),
(148,167.5,c),
(77.259,167.5,o),
(19.5,139.675,o),
(19.5,101,c),
(19.5,36.073,o),
(129.247,-9.5,o),
(264,-9.5,c),
(434.018,-9.5,o),
(569.5,68.68,o),
(569.5,171,c),
(569.5,324.196,o),
(366.5,363.196,o),
(366.5,582,c),
(366.5,685.819,o),
(427.542,786.613,o),
(506.15,792.242,c),
(510.023,792.233,o),
(513.38,795.589,o),
(513.38,799.73,c),
(513.38,803.871,o),
(510.023,807.227,o),
(505.61,807.217,c),
(417.754,800.819,o),
(351.5,690.842,o),
(351.5,582,c),
(351.5,350.804,o),
(554.5,311.804,o),
(554.5,171,c),
(554.5,78.32,o),
(428.982,5.5,o),
(264,5.5,c),
(132.553,5.5,o),
(34.5,47.927,o),
(34.5,101,c),
(34.5,129.325,o),
(81.741,152.5,o),
(148,152.5,c),
(318.986,152.5,o),
(418.986,2.5,o),
(602,2.5,c),
(735.083,2.5,o),
(796.5,107.152,o),
(796.5,236,c),
(796.5,449.848,o),
(627.083,737.5,o),
(332,737.5,c),
(175.436,737.5,o),
(93.5,627.287,o),
(93.5,517,c),
(93.5,404.14,o),
(177.783,289.822,o),
(351.806,286.57,c),
(356.018,286.57,o),
(359.375,289.927,o),
(359.375,294.069,c),
(359.375,298.211,o),
(356.018,301.568,o),
(351.945,301.568,c)
);
}
);
width = 817;
},
{
layerId = m002;
shapes = (
{
closed = 1;
nodes = (
(209,328,o),
(144,419,o),
(144,517,c),
(144,616,o),
(211,705,o),
(350,705,c),
(626,705,o),
(782,440,o),
(782,236,c),
(782,117,o),
(734,35,o),
(620,35,c),
(454,35,o),
(354,185,o),
(166,185,c),
(84,185,o),
(20,151,o),
(20,101,c),
(20,23,o),
(140,-27,o),
(282,-27,c),
(460,-27,o),
(605,56,o),
(605,171,c),
(605,309,o),
(402,421,o),
(402,582,c),
(402,676,o),
(450,760,o),
(514,773,c),
(525,776,o),
(534,786,o),
(534,798,c),
(534,813,o),
(519,825,o),
(503,822,c),
(414,803,o),
(352,691,o),
(352,582,c),
(352,391,o),
(555,279,o),
(555,171,c),
(555,88,o),
(442,23,o),
(282,23,c),
(154,23,o),
(70,59,o),
(70,101,c),
(70,118,o),
(104,135,o),
(166,135,c),
(328,135,o),
(428,-15,o),
(620,-15,c),
(765,-15,o),
(832,100,o),
(832,236,c),
(832,457,o),
(657,755,o),
(350,755,c),
(183,755,o),
(94,636,o),
(94,517,c),
(94,399,o),
(180,280,o),
(353,270,c),
(366,269,o),
(380,279,o),
(380,295,c),
(380,308,o),
(369,319,o),
(356,320,c)
);
}
);
width = 852;
}
);
unicode = 68;
},
{
glyphname = E;
lastChange = "2022-03-12 01:13:43 +0000";
layers = (
{
layerId = m01;
shapes = (
{
closed = 1;
nodes = (
(726,-13,o),
(826,0,o),
(878,19,c),
(872,384,l),
(872,143,o),
(746,-8,o),
(610,-8,cs),
(452,-8,o),
(383,113,o),
(383,389,cs),
(383,661,o),
(452,780,o),
(610,780,cs),
(748,780,o),
(872,647,o),
(872,436,c),
(892,823,l),
(872,823,l),
(872,-16,l),
(889,-16,l),
(878,755,l),
(862,760,o),
(755,785,o),
(614,785,cs),
(217,785,o),
(20,652,o),
(20,384,cs),
(20,119,o),
(216,-13,o),
(610,-13,cs)
);
},
{
closed = 1;
nodes = (
(400,449,ls),
(578,449,o),
(561,166,o),
(667,166,cs),
(753,166,o),
(762,449,o),
(800,449,cs),
(878,449,l),
(878,458,l),
(341,458,l),
(341,449,l)
);
}
);
width = 912;
},
{
layerId = m002;
shapes = (
{
closed = 1;
nodes = (
(706,-13,o),
(873,148,o),
(873,379,c),
(872,384,l),
(872,330,o),
(818,295,o),
(719,295,cs),
(536,295,o),
(383,427,o),
(383,584,cs),
(383,716,o),
(474,779,o),
(577,779,cs),
(713,779,o),
(872,590,o),
(872,436,c),
(892,823,l),
(872,823,l),
(872,114,l),
(889,114,l),
(887,757,l),
(871,762,o),
(755,785,o),
(600,785,cs),
(349,785,o),
(20,720,o),
(20,384,cs),
(20,151,o),
(199,-13,o),
(452,-13,cs)
);
},
{
closed = 1;
nodes = (
(400,629,ls),
(578,629,o),
(561,346,o),
(667,346,cs),
(753,346,o),
(762,629,o),
(800,629,cs),
(878,629,l),
(878,638,l),
(341,638,l),
(341,629,l)
);
}
);
width = 912;
}
);
unicode = 69;
},
{
glyphname = G;
lastChange = "2022-03-14 02:27:59 +0000";
layers = (
{
layerId = m01;
shapes = (
{
closed = 1;
nodes = (
(714,127,o),
(718,253,o),
(666,384,c),
(466,384,o),
(478,224,o),
(413,224,cs),
(351,224,o),
(340,349,o),
(340,473,cs),
(340,684,o),
(414,762,o),
(491,762,cs),
(575,762,o),
(668,668,o),
(668,551,c),
(670,551,l),
(670,655,o),
(601,716,o),
(513,716,cs),
(431,716,o),
(366,654,o),
(366,549,cs),
(366,440,o),
(442,385,o),
(518,385,cs),
(595,385,o),
(672,440,o),
(672,551,cs),
(672,702,o),
(552,797,o),
(362,797,cs),
(161,797,o),
(20,646,o),
(20,399,cs),
(20,159,o),
(95,-16,o),
(231,-16,cs),
(481,-16,o),
(371,369,o),
(662,375,c),
(662,374,l),
(469,374,o),
(420,138,o),
(420,3,c),
(512,-14,o),
(614,-16,o),
(696,2,c)
);
}
);
width = 728;
},
{
layerId = m002;
shapes = (
{
closed = 1;
nodes = (
(714,127,o),
(718,233,o),
(666,364,c),
(466,364,o),
(437,224,o),
(372,224,cs),
(258,224,o),
(55,418,o),
(55,542,cs),
(55,635,o),
(172,762,o),
(274,762,cs),
(365,762,o),
(405,670,o),
(405,459,c),
(666,551,l),
(666,643,o),
(581,716,o),
(473,716,cs),
(363,716,o),
(276,643,o),
(276,549,cs),
(276,452,o),
(365,375,o),
(478,375,cs),
(587,375,o),
(672,452,o),
(672,551,cs),
(672,702,o),
(552,797,o),
(362,797,cs),
(161,797,o),
(20,646,o),
(20,399,cs),
(20,159,o),
(95,-16,o),
(231,-16,cs),
(481,-16,o),
(340,355,o),
(662,355,c),
(662,354,l),
(469,354,o),
(420,138,o),
(420,3,c),
(512,-14,o),
(614,-16,o),
(696,2,c)
);
}
);
width = 728;
}
);
unicode = 71;
},
{
glyphname = H;
lastChange = "2022-03-14 16:45:03 +0000";
layers = (
{
layerId = m01;
shapes = (
{
closed = 1;
nodes = (
(283,277,o),
(395,477,o),
(508,477,cs),
(566,477,o),
(611,437,o),
(611,385,cs),
(611,333,o),
(566,292,o),
(508,292,cs),
(451,292,o),
(406,333,o),
(406,385,cs),
(406,389,o),
(402,392,o),
(398,392,cs),
(394,392,o),
(391,389,o),
(391,385,cs),
(391,325,o),
(442,277,o),
(508,277,cs),
(574,277,o),
(626,325,o),
(626,385,cs),
(626,445,o),
(574,492,o),
(508,492,cs),
(388,492,o),
(276,292,o),
(163,292,cs),
(105,292,o),
(60,332,o),
(60,384,cs),
(60,436,o),
(105,477,o),
(163,477,cs),
(220,477,o),
(265,436,o),
(265,384,cs),
(265,380,o),
(269,377,o),
(273,377,cs),
(277,377,o),
(280,380,o),
(280,384,cs),
(280,444,o),
(229,492,o),
(163,492,cs),
(97,492,o),
(45,444,o),
(45,384,cs),
(45,324,o),
(97,277,o),
(163,277,cs)
);
},
{
closed = 1;
nodes = (
(137,-8,o),
(190,-8,o),
(213,0,c),
(192,191,o),
(192,313,o),
(192,411,cs),
(192,500,o),
(192,592,o),
(213,768,c),
(189,776,o),
(135,776,o),
(111,768,c),
(134,592,o),
(132,500,o),
(132,411,cs),
(132,313,o),
(134,191,o),
(114,0,c)
);
},
{
closed = 1;
nodes = (
(482,-8,o),
(535,-8,o),
(558,0,c),
(537,191,o),
(537,313,o),
(537,411,cs),
(537,500,o),
(537,592,o),
(558,768,c),
(534,776,o),
(480,776,o),
(456,768,c),
(479,592,o),
(477,500,o),
(477,411,cs),
(477,313,o),
(479,191,o),
(459,0,c)
);
}
);
width = 671;
},
{
layerId = m002;
shapes = (
{
closed = 1;
nodes = (
(283,277,o),
(395,477,o),
(508,477,cs),
(566,477,o),
(611,437,o),
(611,385,cs),
(611,333,o),
(566,292,o),
(508,292,cs),
(451,292,o),
(406,333,o),
(406,385,cs),
(406,389,o),
(402,392,o),
(398,392,cs),
(394,392,o),
(391,389,o),
(391,385,cs),
(391,325,o),
(442,277,o),
(508,277,cs),
(574,277,o),
(626,325,o),
(626,385,cs),
(626,445,o),
(574,492,o),
(508,492,cs),
(388,492,o),
(276,292,o),
(163,292,cs),
(105,292,o),
(60,332,o),
(60,384,cs),
(60,436,o),
(105,477,o),
(163,477,cs),
(220,477,o),
(265,436,o),
(265,384,cs),
(265,380,o),
(269,377,o),
(273,377,cs),
(277,377,o),
(280,380,o),
(280,384,cs),
(280,444,o),
(229,492,o),
(163,492,cs),
(97,492,o),
(45,444,o),
(45,384,cs),
(45,324,o),
(97,277,o),
(163,277,cs)
);
},
{
closed = 1;
nodes = (
(161,0,o),
(166,0,o),
(171,0,c),
(170,191,o),
(170,313,o),
(170,411,cs),
(170,500,o),
(170,592,o),
(171,768,c),
(165,768,o),
(159,768,o),
(153,768,c),
(156,592,o),
(154,500,o),
(154,411,cs),
(154,313,o),
(156,191,o),
(156,0,c)
);
},
{
closed = 1;
nodes = (
(505,0,o),
(510,0,o),
(515,0,c),
(514,191,o),
(514,313,o),
(514,411,cs),
(514,500,o),
(514,592,o),
(515,768,c),
(509,768,o),
(503,768,o),
(497,768,c),
(500,592,o),
(498,500,o),
(498,411,cs),
(498,313,o),
(500,191,o),
(500,0,c)
);
}
);
width = 671;
}
);
unicode = 72;
},
{
glyphname = J;
lastChange = "2022-03-17 01:30:03 +0000";
layers = (
{
layerId = m01;
shapes = (
{
closed = 1;
nodes = (
(623,819,l),
(623,762,o),
(531,765,o),
(321,765,cs),
(167,765,o),
(20,691,o),
(20,472,cs),
(20,378,o),
(69,299,o),
(136,299,cs),
(199,299,o),
(244,347,o),
(244,416,cs),
(244,470,o),
(199,513,o),
(142,513,cs),
(110,513,o),
(73,487,o),
(73,436,c),
(107,441,l),
(107,533,o),
(208,583,o),
(321,584,cs),
(490,585,l),
(490,582,l),
(443,582,o),
(335,559,o),
(335,465,cs),
(336,126,ls),
(336,63,o),
(291,34,o),
(247,34,cs),
(208,34,o),
(169,57,o),
(166,100,c),
(156,100,l),
(156,-38,o),
(219,-125,o),
(320,-125,cs),
(465,-125,o),
(551,-31,o),
(549,124,cs),
(545,530,ls),
(544,621,o),
(633,604,o),
(633,819,c)
);
}
);
width = 653;
},
{
layerId = m002;
shapes = (
{
closed = 1;
nodes = (
(763,819,l),
(763,762,o),
(671,765,o),
(371,765,cs),
(167,765,o),
(20,691,o),
(20,472,cs),
(20,378,o),
(69,299,o),
(136,299,cs),
(199,299,o),
(244,347,o),
(244,416,cs),
(244,470,o),
(199,513,o),
(142,513,cs),
(110,513,o),
(73,487,o),
(73,436,c),
(107,441,l),
(107,533,o),
(208,583,o),
(371,584,cs),
(630,585,l),
(630,582,l),
(583,582,o),
(475,559,o),
(475,465,cs),
(475,246,ls),
(475,63,o),
(331,34,o),
(244,34,cs),
(148,34,o),
(109,57,o),
(106,100,c),
(96,100,l),
(96,-38,o),
(159,-125,o),
(360,-125,cs),
(505,-125,o),
(692,-31,o),
(689,244,cs),
(685,530,ls),
(684,621,o),
(773,604,o),
(773,819,c)
);
}
);
width = 793;
}
);
unicode = 74;
},
{
glyphname = L;
lastChange = "2022-03-19 07:01:14 +0000";
layers = (
{
layerId = m01;
shapes = (
{
closed = 1;
nodes = (
(396,325,o),
(396,292,o),
(396,258,cs),
(396,36,o),
(359,10,o),
(284,10,cs),
(229,10,o),
(201,81,o),
(201,225,cs),
(201,457,ls),
(201,620,o),
(239,702,o),
(342,702,c),
(342,707,l),
(232,707,o),
(232,637,o),
(179,637,cs),
(122,637,o),
(96,707,o),
(0,707,c),
(0,702,l),
(103,702,o),
(141,620,o),
(141,457,cs),
(141,225,ls),
(141,87,o),
(107,5,o),
(0,5,c),
(0,0,l),
(87,0,o),
(110,15,o),
(164,15,cs),
(196,15,o),
(226,0,o),
(284,0,cs),
(356,0,o),
(391,37,o),
(484,-18,c),
(490,-16,l),
(390,70,o),
(423,292,o),
(390,393,c),
(382,393,l)
);
}
);
width = 490;
},
{
layerId = m002;
shapes = (
{
closed = 1;
nodes = (
(596,525,o),
(596,492,o),
(596,458,cs),
(596,299,o),
(559,10,o),
(484,10,cs),
(429,10,o),
(401,81,o),
(401,225,cs),
(401,457,ls),
(401,620,o),
(439,702,o),
(542,702,c),
(542,707,l),
(432,707,o),
(432,667,o),
(279,667,cs),
(122,667,o),
(56,707,o),
(0,707,c),
(0,702,l),
(103,702,o),
(141,620,o),
(141,457,cs),
(141,225,ls),
(141,87,o),
(107,5,o),
(0,5,c),
(0,0,l),
(87,0,o),
(171,25,o),
(262,25,cs),
(360,25,o),
(391,-2,o),
(484,0,cs),
(685,5,o),
(723,-12,o),
(730,-36,c),
(740,-36,l),
(663,131,o),
(623,383,o),
(590,593,c),
(582,593,l)
);
}
);
width = 740;
}
);
unicode = 76;
},
{
glyphname = M;
lastChange = "2022-03-22 01:35:23 +0000";
layers = (
{
layerId = m01;
shapes = (
{
closed = 1;
nodes = (
(479,-14,o),
(543,-14,cs),
(600,-14,o),
(656,-9,o),
(670,0,c),
(702,59,o),
(781,462,o),
(781,581,c),
(763,574,l),
(860,574,l),
(786,581,l),
(786,362,o),
(816,117,o),
(830,0,c),
(845,-10,o),
(888,-14,o),
(931,-14,cs),
(976,-14,o),
(1021,-9,o),
(1035,0,c),
(1035,383,o),
(997,544,o),
(945,700,c),
(931,709,o),
(866,714,o),
(802,714,cs),
(745,714,o),
(690,710,o),
(675,700,c),
(635,641,o),
(556,220,o),
(556,110,c),
(633,157,l),
(421,157,l),
(555,110,l),
(555,221,o),
(476,641,o),
(436,700,c),
(423,709,o),
(362,714,o),
(301,714,cs),
(240,714,o),
(180,709,o),
(166,700,c),
(108,544,o),
(75,397,o),
(75,0,c),
(86,-11,o),
(118,-16,o),
(152,-16,cs),
(188,-16,o),
(225,-10,o),
(240,0,c),
(254,117,o),
(287,396,o),
(287,582,c),
(196,574,l),
(357,574,l),
(292,582,l),
(292,396,o),
(358,59,o),
(400,0,c),
(413,-8,o)
);
}
);
width = 1110;
},
{
layerId = m002;
shapes = (
{
closed = 1;
nodes = (
(479,-14,o),
(543,-14,cs),
(600,-14,o),
(656,-9,o),
(670,0,c),
(702,59,o),
(781,171,o),
(781,211,c),
(763,204,l),
(860,204,l),
(786,211,l),
(786,122,o),
(816,37,o),
(830,0,c),
(845,-10,o),
(888,-14,o),
(931,-14,cs),
(976,-14,o),
(1021,-9,o),
(1035,0,c),
(1035,383,o),
(997,544,o),
(945,700,c),
(931,709,o),
(866,714,o),
(802,714,cs),
(745,714,o),
(688,712,o),
(675,700,cs),
(633,663,o),
(556,580,o),
(556,540,c),
(623,557,l),
(491,557,l),
(555,540,l),
(555,581,o),
(476,661,o),
(436,700,cs),
(425,711,o),
(362,714,o),
(301,714,cs),
(240,714,o),
(180,709,o),
(166,700,c),
(108,544,o),
(75,397,o),
(75,0,c),
(86,-11,o),
(118,-16,o),
(152,-16,cs),
(188,-16,o),
(225,-10,o),
(240,0,c),
(254,37,o),
(287,156,o),
(287,212,c),
(196,204,l),
(357,204,l),
(292,212,l),
(292,156,o),
(358,59,o),
(400,0,c),
(413,-8,o)
);
}
);
width = 1110;
}
);
unicode = 77;
},
{
glyphname = N;
lastChange = "2022-03-22 02:12:38 +0000";
layers = (
{
layerId = m01;
shapes = (
{
closed = 1;
nodes = (
(857,0,l),
(856,700,l),
(696,700,l),
(703,110,l),
(793,177,l),
(652,177,l),
(748,110,l),
(381,700,l),
(101,700,l),
(100,0,l),
(260,0,l),
(256,581,l),
(164,514,l),
(265,514,l),
(211,581,l),
(575,0,l)
);
}
);
width = 957;
},
{
layerId = m002;
shapes = (
{
closed = 1;
nodes = (
(567,0,l),
(566,700,l),
(406,700,l),
(413,110,l),
(473,177,l),
(332,177,l),
(428,110,l),
(341,700,l),
(51,700,l),
(50,0,l),
(210,0,l),
(206,581,l),
(124,514,l),
(225,514,l),
(191,581,l),
(275,0,l)
);
}
);
width = 617;
}
);
unicode = 78;
},
{
glyphname = O;
lastChange = "2022-03-22 02:10:36 +0000";
layers = (
{
layerId = m01;
shapes = (
{
closed = 1;
nodes = (
(517,-10,o),
(610,124,o),
(610,338,cs),
(610,553,o),
(517,689,o),
(330,690,cs),
(143,691,o),
(50,555,o),
(50,338,cs),
(50,124,o),
(143,-10,o),
(330,-10,cs)
);
},
{
closed = 1;
nodes = (
(310,8,o),
(303,91,o),
(303,338,cs),
(303,587,o),
(310,670,o),
(330,670,cs),
(351,670,o),
(358,587,o),
(357,338,cs),
(356,91,o),
(349,8,o),
(330,8,cs)
);
}
);
width = 660;
},
{
layerId = m002;
shapes = (
{
closed = 1;
nodes = (
(494,-10,o),
(610,134,o),
(610,338,cs),
(610,544,o),
(494,689,o),
(330,690,cs),
(166,691,o),
(50,546,o),
(50,338,cs),
(50,134,o),
(166,-10,o),
(330,-10,cs)
);
},
{
closed = 1;
nodes = (
(137,238,o),
(63,266,o),
(63,338,cs),
(63,412,o),
(137,440,o),
(330,440,cs),
(524,440,o),
(598,412,o),
(597,338,cs),
(597,266,o),
(523,238,o),
(330,238,cs)
);
}
);
width = 660;
}
);
unicode = 79;
},
{
glyphname = P;
lastChange = "2022-03-23 23:20:52 +0000";
layers = (
{
layerId = m01;
shapes = (
{
closed = 1;
nodes = (
(478,0,l),
(478,101,l),
(264,144,l),
(264,0,l)
);
},
{
closed = 1;
nodes = (
(264,144,l),
(50,101,l),
(50,0,l),
(264,0,l)
);
},
{
closed = 1;
nodes = (
(295,0,l),
(269,250,l),
(269,297,l),
(295,700,l),
(233,700,l),
(259,297,l),
(259,250,l),
(233,0,l)
);
},
{
closed = 1;
nodes = (
(264,700,l),
(264,566,l),
(422,593,l),
(517,593,o),
(619,616,o),
(619,482,cs),
(619,362,o),
(517,373,o),
(422,373,c),
(407,373,l),
(266,388,l),
(266,252,l),
(407,267,l),
(422,267,l),
(534,267,o),
(635,363,o),
(635,481,cs),
(635,615,o),
(539,700,o),
(435,700,c)
);
},
{
closed = 1;
nodes = (
(50,700,l),
(50,598,l),
(264,557,l),
(264,700,l)
);
}
);
width = 685;
},
{
layerId = m002;
shapes = (
{
closed = 1;
nodes = (
(478,0,l),
(478,1,l),
(264,44,l),
(264,0,l)
);
},
{
closed = 1;
nodes = (
(264,44,l),
(50,1,l),
(50,0,l),
(264,0,l)
);
},
{
closed = 1;
nodes = (
(295,0,l),
(269,250,l),
(269,297,l),
(295,700,l),
(233,700,l),
(259,297,l),
(259,250,l),
(233,0,l)
);
},
{
closed = 1;
nodes = (
(264,700,l),
(264,666,l),
(422,693,l),
(517,693,o),
(589,616,o),
(589,482,cs),
(589,362,o),
(517,273,o),
(422,273,c),
(407,273,l),
(266,288,l),
(266,252,l),
(407,267,l),
(422,267,l),
(534,267,o),
(635,363,o),
(635,481,cs),
(635,615,o),
(539,700,o),
(435,700,c)
);
},
{
closed = 1;
nodes = (
(50,700,l),
(50,698,l),
(264,657,l),
(264,700,l)
);
}
);
width = 685;
}
);
unicode = 80;
},
{
glyphname = Q;
lastChange = "2022-03-23 23:33:38 +0000";
layers = (
{
layerId = m01;
shapes = (
{
closed = 1;
nodes = (
(732,-98,l),
(563,79,l),
(510,66,l),
(510,38,l),
(510,102,l),
(467,65,l),
(583,65,o),
(674,190,o),
(674,350,cs),
(674,583,o),
(555,714,o),
(342,714,cs),
(129,714,o),
(10,583,o),
(10,350,cs),
(10,103,o),
(116,-14,o),
(342,-14,cs),
(428,-14,o),
(496,15,o),
(496,52,c),
(392,52,l),
(548,-206,l)
);
},
{
closed = 1;
nodes = (
(271,145,o),
(225,207,o),
(225,350,cs),
(225,492,o),
(271,554,o),
(342,554,cs),
(413,554,o),
(459,492,o),
(459,350,cs),
(459,207,o),
(413,145,o),
(342,145,cs)
);
}
);
width = 742;
},
{
layerId = m002;
shapes = (
{
closed = 1;
nodes = (
(647,-164,l),
(458,65,l),
(411,59,l),
(435,54,l),
(435,84,l),
(422,65,l),
(517,65,o),
(584,183,o),
(584,350,cs),
(584,564,o),
(466,714,o),
(297,714,cs),
(128,714,o),
(10,564,o),
(10,350,cs),
(10,136,o),
(128,-16,o),
(297,-16,cs),
(355,-16,o),
(435,23,o),
(435,51,c),
(426,52,l),
(582,-206,l)
);
},
{
closed = 1;
nodes = (
(155,34,o),
(75,151,o),
(75,350,cs),
(75,548,o),
(155,664,o),
(297,664,cs),
(439,664,o),
(519,548,o),
(519,350,cs),
(519,151,o),
(439,34,o),
(297,34,cs)
);
}
);
width = 657;
}
);
unicode = 81;
},
{
glyphname = R;
lastChange = "2022-03-25 01:40:16 +0000";
layers = (
{
layerId = m01;
shapes = (
{
closed = 1;
nodes = (
(269,315,o),
(353,278,o),
(420,278,c),
(375,327,l),
(373,80,o),
(432,-11,o),
(587,-11,cs),
(724,-11,o),
(793,46,o),
(793,183,cs),
(793,256,o),
(765,283,o),
(743,283,c),
(723,268,o),
(694,259,o),
(666,259,cs),
(622,259,o),
(580,280,o),
(580,327,c),
(471,300,l),
(644,300,o),
(741,395,o),
(741,566,cs),
(741,719,o),
(619,805,o),
(401,805,cs),
(244,805,o),
(122,774,o),
(60,719,c),
(31,470,o),
(38,288,o),
(94,17,c),
(135,-2,o),
(188,-13,o),
(241,-13,cs),
(282,-13,o),
(328,-2,o),
(368,17,c),
(368,94,o),
(343,642,o),
(304,678,c),
(200,600,l),
(292,503,l),
(292,536,o),
(331,555,o),
(401,555,cs),
(446,555,o),
(471,524,o),
(471,469,cs),
(471,415,o),
(444,385,o),
(396,385,cs),
(346,385,o),
(292,410,o),
(245,455,c),
(184,380,l)
);
}
);
width = 823;
},
{
layerId = m002;
shapes = (
{
closed = 1;
nodes = (
(269,315,o),
(353,278,o),
(420,278,c),
(375,327,l),
(373,80,o),
(432,-11,o),
(587,-11,cs),
(694,-11,o),
(793,74,o),
(793,98,c),
(781,163,o),
(765,197,o),
(743,283,c),
(723,268,o),
(694,259,o),
(666,259,cs),
(622,259,o),
(580,280,o),
(580,327,c),
(471,300,l),
(644,300,o),
(741,395,o),
(741,566,cs),
(741,719,o),
(619,805,o),
(401,805,cs),
(244,805,o),
(207,805,o),
(60,800,c),
(88,461,o),
(88,380,o),
(94,4,c),
(135,6,o),
(188,6,o),
(241,6,cs),
(282,6,o),
(328,6,o),
(368,4,c),
(310,380,o),
(310,380,o),
(304,678,c),
(200,600,l),
(220,549,l),
(303,555,o),
(317,555,o),
(386,555,cs),
(431,555,o),
(471,524,o),
(471,469,cs),
(471,415,o),
(444,385,o),
(396,385,cs),
(346,385,o),
(292,410,o),
(245,455,c),
(184,380,l)
);
}
);
width = 853;
}
);
unicode = 82;
},
{
glyphname = S;
lastChange = "2022-03-28 21:21:58 +0000";
layers = (
{
layerId = m01;
shapes = (
{
closed = 1;
nodes = (
(451,716,o),
(373,716,cs),
(153,716,o),
(57,650,o),
(57,499,cs),
(57,262,o),
(339,282,o),
(339,223,cs),
(339,201,o),
(309,192,o),
(268,192,cs),
(192,192,o),
(107,220,o),
(69,238,c),
(49,238,o),
(40,196,o),
(40,152,cs),
(40,106,o),
(50,39,o),
(71,33,cs),
(153,4,o),
(244,-14,o),
(328,-14,cs),
(539,-14,o),
(631,50,o),
(631,197,cs),
(631,408,o),
(349,402,o),
(349,461,cs),
(349,479,o),
(373,485,o),
(406,485,cs),
(471,485,o),
(544,460,o),
(579,444,c),
(595,444,o),
(603,484,o),
(603,566,cs),
(603,609,o),
(595,655,o),
(577,666,cs),
(527,698,o)
);
}
);
width = 671;
},
{
layerId = m002;
shapes = (
{
closed = 1;
nodes = (
(435,724,o),
(347,724,cs),
(202,724,o),
(57,661,o),
(57,486,cs),
(57,202,o),
(269,222,o),
(269,163,cs),
(269,140,o),
(251,132,o),
(226,132,cs),
(179,132,o),
(107,160,o),
(69,178,c),
(49,178,o),
(40,138,o),
(40,94,cs),
(40,48,o),
(50,39,o),
(71,33,cs),
(148,6,o),
(260,-17,o),
(364,-17,cs),
(505,-17,o),
(631,25,o),
(631,158,cs),
(631,348,o),
(419,342,o),
(419,401,cs),
(419,419,o),
(431,425,o),
(450,425,cs),
(486,425,o),
(546,399,o),
(579,384,c),
(590,384,o),
(603,424,o),
(603,506,cs),
(603,549,o),
(595,655,o),
(577,666,cs),
(522,701,o)
);
}
);
width = 681;
}
);
unicode = 83;
},
{
glyphname = U;
lastChange = "2022-03-28 21:29:51 +0000";
layers = (
{
layerId = m01;
shapes = (
{
closed = 1;
nodes = (
(333,-3,l),
(522,17,l),
(518,43,o),
(512,126,o),
(512,257,cs),
(512,527,o),
(517,669,o),
(520,700,c),
(320,687,l),
(314,657,o),
(310,520,o),
(310,257,cs),
(310,174,o),
(329,135,o),
(328,129,c)
);
},
{
closed = 1;
nodes = (
(50,681,l),
(54,658,o),
(60,526,o),
(60,250,cs),
(60,66,o),
(146,-10,o),
(223,-10,cs),
(315,-10,o),
(328,129,o),
(328,132,c),
(320,687,l),
(282,687,o),
(263,706,o),
(234,696,c),
(120,667,l),
(210,17,l),
(217,485,o),
(236,681,o),
(249,699,c)
);
}
);
width = 572;
},
{
layerId = m002;
shapes = (
{
closed = 1;
nodes = (
(333,-3,l),
(522,17,l),
(518,43,o),
(512,126,o),
(512,257,cs),
(512,527,o),
(517,669,o),
(520,700,c),
(320,687,l),
(324,657,o),
(330,520,o),
(330,257,cs),
(330,174,o),
(329,135,o),
(328,129,c)
);
},
{
closed = 1;
nodes = (
(50,681,l),
(54,658,o),
(60,526,o),
(60,250,cs),
(60,66,o),
(146,-10,o),
(223,-10,cs),
(315,-10,o),
(328,129,o),
(328,132,c),
(329,133,l),
(243,133,o),
(212,175,o),
(212,207,c),
(175,198,l),
(210,17,l),
(217,485,o),
(237,682,o),
(250,700,c)
);
}
);
width = 572;
}
);
unicode = 85;
},
{
glyphname = V;
lastChange = "2022-03-28 21:32:03 +0000";
layers = (
{
layerId = m01;
shapes = (
{
closed = 1;
nodes = (
(35,597,o),
(81,451,o),
(116,325,cs),
(150,202,o),
(184,61,o),
(199,-10,c),
(383,50,l),
(388,67,o),
(421,258,o),
(495,716,c),
(263,682,l),
(374,469,o),
(397,161,o),
(382,53,c),
(383,51,l),
(357,129,o),
(309,278,o),
(274,403,cs),
(243,513,o),
(214,635,o),
(200,696,c),
(10,672,l)
);
}
);
width = 600;
},
{
layerId = m002;
shapes = (
{
closed = 1;
nodes = (
(35,597,o),
(81,451,o),
(116,325,cs),
(150,202,o),
(184,61,o),
(199,-10,c),
(383,50,l),
(388,67,o),
(421,258,o),
(495,716,c),
(263,682,ls),
(231,677,o),
(214,674,o),
(114,656,c),
(383,51,l),
(357,129,o),
(309,278,o),
(274,403,cs),
(243,513,o),
(214,635,o),
(200,696,c),
(10,672,l)
);
}
);
width = 600;
}
);
unicode = 86;
},
{
glyphname = W;
lastChange = "2022-04-04 01:07:29 +0000";
layers = (
{
guides = (
{
angle = 49.3493;
pos = (256,0);
}
);
layerId = m01;
shapes = (
{
closed = 1;
nodes = (
(936,764,l),
(926,766,l),
(954,702,l),
(955,761,l),
(655,412,l),
(833,-2,l),
(865,-2,l),
(1156,322,l),
(958,789,l),
(934,789,l),
(269,13,l),
(284,8,l),
(260,72,l),
(265,35,l),
(563,382,l),
(433,790,l),
(9,790,l),
(256,0,l),
(280,0,l)
);
},
{
closed = 1;
nodes = (
(465,771,l),
(466,790,l),
(2,790,l),
(0,771,l)
);
},
{
closed = 1;
nodes = (
(1302,767,o),
(1365,767,cs),
(1416,767,o),
(1462,740,o),
(1462,692,cs),
(1462,641,o),
(1429,598,o),
(1271,439,cs),
(833,-2,l),
(865,-2,l),
(1320,456,ls),
(1465,601,o),
(1485,654,o),
(1485,696,cs),
(1485,761,o),
(1421,796,o),
(1345,796,cs),
(1235,796,o),
(1100,723,o),
(1100,568,cs),
(1100,508,o),
(1134,468,o),
(1194,468,cs),
(1314,468,o),
(1447,628,o),
(1447,693,cs),
(1447,729,o),
(1409,750,o),
(1367,750,cs),
(1311,750,o),
(1247,715,o),
(1246,634,c),
(1231,634,l),
(1231,726,o)
);
}
);
width = 1485;
},
{
layerId = m002;
shapes = (
{
closed = 1;
nodes = (
(936,764,l),
(646,433,l),
(674,369,l),
(955,761,l),
(655,412,l),
(833,-2,l),
(865,-2,l),
(1156,322,l),
(958,789,l),
(934,789,l),
(269,13,l),
(574,352,l),
(550,416,l),
(265,35,l),
(563,382,l),
(433,790,l),
(9,790,l),
(256,0,l),
(280,0,l)
);
},
{
closed = 1;
nodes = (
(465,771,l),
(466,790,l),
(2,790,l),
(0,771,l)
);
},
{
closed = 1;
nodes = (
(1290,767,o),
(1365,767,cs),
(1416,767,o),
(1462,740,o),
(1462,692,cs),
(1462,641,o),
(1429,598,o),
(1271,439,cs),
(833,-2,l),
(865,-2,l),
(1320,456,ls),
(1465,601,o),
(1485,654,o),
(1485,696,cs),
(1485,761,o),
(1421,796,o),
(1345,796,cs),
(1235,796,o),
(1100,723,o),
(1100,568,cs),
(1100,508,o),
(1134,468,o),
(1194,468,cs),
(1314,468,o),
(1447,628,o),
(1447,693,cs),
(1447,729,o),
(1409,780,o),
(1367,780,cs),
(1289,780,o),
(1217,710,o),
(1216,634,c),
(1231,634,l),
(1231,708,o)
);
}
);
width = 1485;
}
);
unicode = 87;
},
{
glyphname = X;
lastChange = "2022-04-04 02:40:43 +0000";
layers = (
{
hints = (
{
name = _segment.forma;
origin = (0,10);
scale = (0.85837,0.85837);
type = Segment;
},
{
name = _segment.forma;
origin = (0,9);
scale = (0.85837,0.85837);
type = Segment;
},
{
name = _segment.forma;
origin = (0,8);
scale = (0.85837,0.85837);
type = Segment;
},
{
name = _segment.forma;
origin = (0,7);
scale = (0.85837,0.85837);
type = Segment;
},
{
name = _segment.forma;
origin = (0,6);
scale = (0.85837,0.85837);
type = Segment;
},
{
name = _segment.forma;
options = 1;
origin = (0,5);
scale = (-0.85837,0.85837);
type = Segment;
},
{
name = _segment.forma;
options = 1;
origin = (0,4);
scale = (-0.85837,0.85837);
type = Segment;
},
{
name = _segment.forma;
origin = (0,3);
scale = (0.85837,0.85837);
type = Segment;
},
{
name = _segment.forma;
options = 1;
origin = (0,2);
scale = (-0.85837,0.85837);
type = Segment;
},
{
name = _segment.forma;
origin = (0,1);
scale = (0.85837,0.85837);
type = Segment;
},
{
name = _segment.forma;
options = 1;
origin = (0,0);
scale = (-0.85837,0.85837);
type = Segment;
},
{
name = _segment.forma;
origin = (0,11);
scale = (0.85837,0.85837);
type = Segment;
}
);
layerId = m01;
shapes = (
{
closed = 1;
nodes = (
(429,528,l,{
GSSegment = {
name = _segment.forma;
options = "1";
scale = "{-1, 1}";
};
}),
(505,670,l,{
GSSegment = {
name = _segment.forma;
};
}),
(654,670,l,{
GSSegment = {
name = _segment.forma;
options = "1";
scale = "{-1, 1}";
};
}),
(509,395,l,{
GSSegment = {
name = _segment.forma;
};
}),
(674,120,l,{
GSSegment = {
name = _segment.forma;
options = "1";
scale = "{-1, 1}";
};
}),
(504,120,l,{
GSSegment = {
name = _segment.forma;
options = "1";
scale = "{-1, 1}";
};
}),
(406,286,l,{
GSSegment = {
name = _segment.forma;
};
}),
(318,120,l,{
GSSegment = {
name = _segment.forma;
};
}),
(167,120,l,{
GSSegment = {
name = _segment.forma;
};
}),
(334,404,l,{
GSSegment = {
name = _segment.forma;
};
}),
(176,670,l,{
GSSegment = {
name = _segment.forma;
};
}),
(345,670,l,{
GSSegment = {
name = _segment.forma;
};
})
);
},
{
closed = 1;
nodes = (
(636,-8,o),
(816,172,o),
(816,395,cs),
(816,618,o),
(636,798,o),
(413,798,cs),
(190,798,o),
(10,618,o),
(10,395,cs),
(10,172,o),
(190,-8,o),
(413,-8,cs)
);
}
);
width = 826;
},
{
hints = (
{
name = _segment.forma;
options = 1;
origin = (0,0);
scale = (-0.85837,0.85837);
type = Segment;
},
{
name = _segment.forma;
origin = (0,1);
scale = (0.85837,0.85837);
type = Segment;
},
{
name = _segment.forma;
options = 1;
origin = (0,2);
scale = (-0.85837,0.85837);
type = Segment;
},
{
name = _segment.forma;
origin = (0,3);
scale = (0.85837,0.85837);
type = Segment;
},
{
name = _segment.forma;
options = 1;
origin = (0,4);
scale = (-0.85837,0.85837);
type = Segment;
},
{
name = _segment.forma;
options = 1;
origin = (0,5);
scale = (-0.85837,0.85837);
type = Segment;
},
{
name = _segment.forma;
origin = (0,6);
scale = (0.85837,0.85837);
type = Segment;
},
{
name = _segment.forma;
origin = (0,7);
scale = (0.85837,0.85837);
type = Segment;
},
{
name = _segment.forma;
origin = (0,8);
scale = (0.85837,0.85837);
type = Segment;
},
{
name = _segment.forma;
origin = (0,9);
scale = (0.85837,0.85837);
type = Segment;
},
{
name = _segment.forma;
origin = (0,10);
scale = (0.85837,0.85837);
type = Segment;
},
{
name = _segment.forma;
origin = (0,11);
scale = (0.85837,0.85837);
type = Segment;
}
);
layerId = m002;
shapes = (
{
closed = 1;
nodes = (
(429,528,l,{
GSSegment = {
name = _segment.forma;
options = "1";
scale = "{-0.85837, 0.85837}";
};
}),
(505,670,l,{
GSSegment = {
name = _segment.forma;
scale = "{0.85837, 0.85837}";
};
}),
(654,670,l,{
GSSegment = {
name = _segment.forma;
options = "1";
scale = "{-0.85837, 0.85837}";
};
}),
(509,395,l,{
GSSegment = {
name = _segment.forma;
scale = "{0.85837, 0.85837}";
};
}),
(674,120,l,{
GSSegment = {
name = _segment.forma;
options = "1";
scale = "{-0.85837, 0.85837}";
};
}),
(504,120,l,{
GSSegment = {
name = _segment.forma;
options = "1";
scale = "{-0.85837, 0.85837}";
};
}),
(406,286,l,{
GSSegment = {
name = _segment.forma;
scale = "{0.85837, 0.85837}";
};
}),
(318,120,l,{
GSSegment = {
name = _segment.forma;
scale = "{0.85837, 0.85837}";
};
}),
(167,120,l,{
GSSegment = {
name = _segment.forma;
scale = "{0.85837, 0.85837}";
};
}),
(334,404,l,{
GSSegment = {
name = _segment.forma;
scale = "{0.85837, 0.85837}";
};
}),
(176,670,l,{
GSSegment = {
name = _segment.forma;
scale = "{0.85837, 0.85837}";
};
}),
(345,670,l,{
GSSegment = {
name = _segment.forma;
scale = "{0.85837, 0.85837}";
};
})
);
},
{
closed = 1;
nodes = (
(636,-8,o),
(816,172,o),
(816,395,cs),
(816,618,o),
(636,798,o),
(413,798,cs),
(190,798,o),
(10,618,o),
(10,395,cs),
(10,172,o),
(190,-8,o),
(413,-8,cs)
);
}
);
width = 826;
}
);
unicode = 88;
},
{
glyphname = Y;
lastChange = "2022-04-04 02:57:03 +0000";
layers = (
{
layerId = m01;
shapes = (
{
closed = 1;
nodes = (
(379,362,l),
(393,435,o),
(425,532,o),
(498,792,c),
(264,768,l),
(317,672,o),
(337,589,o),
(335,499,c)
);
},
{
closed = 1;
nodes = (
(361,388,o),
(241,732,o),
(222,792,c),
(10,762,l),
(103,567,o),
(190,385,o),
(190,132,cs),
(190,72,o),
(184,15,o),
(179,-12,c),
(381,1,l),
(376,36,o),
(369,101,o),
(369,149,cs),
(369,241,o),
(367,276,o),
(374,326,c)
);
}
);
width = 508;
},
{
layerId = m002;
shapes = (
{
closed = 1;
nodes = (
(205,338,l),
(219,411,o),
(263,618,o),
(320,792,c),
(276,788,l),
(274,682,o),
(232,505,o),
(193,370,c)
);
},
{
closed = 1;
nodes = (
(166,417,o),
(63,732,o),
(44,792,c),
(10,783,l),
(70,670,o),
(174,344,o),
(174,190,cs),
(174,72,o),
(166,15,o),
(161,-12,c),
(203,-6,l),
(198,29,o),
(191,101,o),
(191,149,cs),
(191,241,o),
(189,276,o),
(196,326,c)
);
}
);
width = 330;
}
);
unicode = 89;
},
{
glyphname = Z;
lastChange = "2022-04-04 03:06:23 +0000";
layers = (
{
layerId = m01;
shapes = (
{
closed = 1;
nodes = (
(134,432,o),
(54,374,o),
(53,189,cs),
(53,104,o),
(85,43,o),
(109,21,c),
(362,75,l),
(341,100,o),
(313,163,o),
(313,269,cs),
(313,382,o),
(347,468,o),
(372,493,c),
(272,494,l),
(151,494,l),
(275,479,l),
(290,575,o),
(339,683,o),
(372,738,c),
(372,739,l),
(286,739,o),
(110,762,o),
(90,778,c),
(31,619,l),
(51,602,o),
(194,580,o),
(239,579,c),
(142,682,l),
(138,682,o),
(30,544,o),
(10,327,c),
(237,328,l),
(139,432,l)
);
}
);
width = 382;
},
{
layerId = m002;
shapes = (
{
closed = 1;
nodes = (
(134,432,o),
(54,374,o),
(53,189,cs),
(53,104,o),
(85,43,o),
(109,21,c),
(162,75,l),
(141,100,o),
(113,163,o),
(113,240,cs),
(113,382,o),
(147,468,o),
(172,493,c),
(172,494,l),
(51,494,l),
(75,479,l),
(90,575,o),
(139,683,o),
(172,738,c),
(172,739,l),
(146,740,o),
(110,762,o),
(90,778,c),
(31,719,l),
(51,702,o),
(94,680,o),
(139,679,c),
(142,682,l),
(138,682,o),
(30,644,o),
(10,427,c),
(137,428,l),
(139,432,l)
);
}
);
width = 182;
}
);
unicode = 90;
},
{
export = 0;
glyphname = A.001;
lastChange = "2022-03-10 01:10:29 +0000";
layers = (
{
layerId = m01;
shapes = (
{
alignment = -1;
pos = (46,0);
ref = Aleft;
},
{
pos = (1366,0);
ref = Aleft;
scale = (-1,1);
},
{
attr = {
lineCapEnd = "1";
lineCapStart = "1";
strokeWidth = 15;
};
closed = 0;
nodes = (
(358,426,l),
(358,485,o),
(304,526,o),
(248,526,cs),
(186,526,o),
(138,482,o),
(138,426,cs),
(138,370,o),
(186,326,o),
(248,326,cs),
(376,326,o),
(510,454,o),
(626,454,cs),
(739,454,o),
(767,331,o),
(767,253,cs),
(767,186,o),
(737,134,o),
(696,134,cs),
(654,134,o),
(624,186,o),
(624,253,cs),
(624,331,o),
(652,454,o),
(765,454,cs),
(881,454,o),
(995,326,o),
(1123,326,cs),
(1206,326,o),
(1245,374,o),
(1245,424,cs),
(1245,474,o),
(1203,526,o),
(1123,526,cs)
);
}
);
width = 1412;
},
{
layerId = m002;
shapes = (
{
alignment = -1;
pos = (46,0);
ref = Aleft;
},
{
pos = (1366,0);
ref = Aleft;
scale = (-1,1);
},
{
attr = {
lineCapEnd = "1";
lineCapStart = "1";
strokeWidth = 15;
};
closed = 0;
nodes = (
(358,426,l),
(358,485,o),
(304,526,o),
(248,526,cs),
(186,526,o),
(138,482,o),
(138,426,cs),
(138,370,o),
(186,326,o),
(248,326,cs),
(376,326,o),
(510,454,o),
(626,454,cs),
(739,454,o),
(767,331,o),
(767,253,cs),
(767,186,o),
(737,134,o),
(696,134,cs),
(654,134,o),
(624,186,o),
(624,253,cs),
(624,331,o),
(652,454,o),
(765,454,cs),
(881,454,o),
(995,326,o),
(1123,326,cs),
(1206,326,o),
(1245,374,o),
(1245,424,cs),
(1245,474,o),
(1203,526,o),
(1123,526,cs)
);
}
);
width = 1412;
}
);
},
{
export = 0;
glyphname = A.002;
lastChange = "2022-03-10 01:10:29 +0000";
layers = (
{
layerId = m01;
shapes = (
{
closed = 1;
nodes = (
(100,225,o),
(50,172,o),
(50,108,cs),
(50,42,o),
(104,-10,o),
(172,-10,cs),
(230,-10,o),
(284,32,o),
(315,120,cs),
(555,792,l),
(507,783,l),
(905,783,l),
(855,796,l),
(1097,120,ls),
(1129,32,o),
(1182,-10,o),
(1240,-10,cs),
(1308,-10,o),
(1363,42,o),
(1363,108,cs),
(1363,172,o),
(1312,225,o),
(1247,225,cs),
(1243,225,o),
(1240,222,o),
(1240,218,cs),
(1240,214,o),
(1243,210,o),
(1247,210,cs),
(1305,210,o),
(1348,164,o),
(1348,108,cs),
(1348,49,o),
(1301,6,o),
(1240,6,cs),
(1188,6,o),
(1141,41,o),
(1111,126,cs),
(874,792,l),
(832,783,l),
(1114,783,ls),
(1175,783,o),
(1222,739,o),
(1222,680,cs),
(1222,621,o),
(1175,578,o),
(1114,578,cs),
(1055,578,o),
(1012,621,o),
(1012,680,cs),
(1012,684,o),
(1008,688,o),
(1004,688,cs),
(1000,688,o),
(997,684,o),
(997,680,cs),
(997,614,o),
(1048,563,o),
(1114,563,cs),
(1182,563,o),
(1237,614,o),
(1237,680,cs),
(1237,746,o),
(1182,798,o),
(1114,798,cs),
(298,798,ls),
(230,798,o),
(176,746,o),
(176,680,cs),
(176,614,o),
(230,563,o),
(298,563,cs),
(364,563,o),
(416,614,o),
(416,680,cs),
(416,684,o),
(412,688,o),
(408,688,cs),
(404,688,o),
(401,684,o),
(401,680,cs),
(401,621,o),
(357,578,o),
(298,578,cs),
(237,578,o),
(191,621,o),
(191,680,cs),
(191,739,o),
(237,783,o),
(298,783,cs),
(580,783,l),
(538,792,l),
(301,126,ls),
(271,42,o),
(224,6,o),
(172,6,cs),
(111,6,o),
(65,49,o),
(65,108,cs),
(65,164,o),
(107,207,o),
(165,210,c),
(169,211,o),
(172,214,o),
(172,218,cs),
(172,222,o),
(169,225,o),
(165,225,cs)
);
},
{
closed = 1;
nodes = (
(334,34,o),
(386,-10,o),
(444,-10,cs),
(512,-10,o),
(567,42,o),
(567,108,cs),
(567,174,o),
(512,226,o),
(444,226,cs),
(440,226,o),
(437,222,o),
(437,218,cs),
(437,214,o),
(440,211,o),
(444,211,cs),
(505,211,o),
(552,167,o),
(552,108,cs),
(552,49,o),
(505,6,o),
(444,6,cs),
(392,6,o),
(346,43,o),
(315,126,c),
(301,120,l)
);
},
{
closed = 1;
nodes = (
(900,226,o),
(846,174,o),
(846,108,cs),
(846,42,o),
(900,-10,o),
(968,-10,cs),
(1026,-10,o),
(1078,34,o),
(1111,120,c),
(1097,126,l),
(1066,43,o),
(1020,6,o),
(968,6,cs),
(907,6,o),
(861,49,o),
(861,108,cs),
(861,167,o),
(907,211,o),
(968,211,cs),
(972,211,o),
(976,214,o),
(976,218,cs),
(976,222,o),
(972,226,o),
(968,226,cs)
);
},
{
closed = 1;
nodes = (
(1214,501,o),
(1252,453,o),
(1252,406,cs),
(1252,359,o),
(1217,316,o),
(1138,316,cs),
(1013,316,o),
(899,444,o),
(780,444,cs),
(660,444,o),
(631,314,o),
(631,235,cs),
(631,165,o),
(663,109,o),
(711,109,cs),
(757,109,o),
(789,165,o),
(789,235,cs),
(789,314,o),
(760,444,o),
(641,444,cs),
(521,444,o),
(387,316,o),
(263,316,cs),
(203,316,o),
(160,355,o),
(160,408,cs),
(160,461,o),
(203,501,o),
(263,501,cs),
(316,501,o),
(365,463,o),
(365,408,cs),
(365,404,o),
(368,401,o),
(373,401,cs),
(377,401,o),
(380,404,o),
(380,408,cs),
(380,472,o),
(322,516,o),
(263,516,cs),
(197,516,o),
(145,468,o),
(145,408,cs),
(145,348,o),
(197,301,o),
(263,301,cs),
(394,301,o),
(528,429,o),
(641,429,cs),
(748,429,o),
(774,312,o),
(774,235,cs),
(774,170,o),
(747,124,o),
(711,124,cs),
(673,124,o),
(646,170,o),
(646,235,cs),
(646,312,o),
(672,429,o),
(780,429,cs),
(892,429,o),
(1006,301,o),
(1138,301,cs),
(1225,301,o),
(1267,352,o),
(1267,406,cs),
(1267,460,o),
(1222,516,o),
(1138,516,cs),
(1133,516,o),
(1130,512,o),
(1130,508,cs),
(1130,504,o),
(1133,501,o),
(1138,501,cs)
);
}
);
width = 1413;
},
{
layerId = m002;
shapes = (
{
closed = 1;
nodes = (
(100,225,o),
(50,172,o),
(50,108,cs),
(50,42,o),
(104,-10,o),
(172,-10,cs),
(230,-10,o),
(284,32,o),
(315,120,cs),
(555,792,l),
(507,783,l),
(905,783,l),
(855,796,l),
(1097,120,ls),
(1129,32,o),
(1182,-10,o),
(1240,-10,cs),
(1308,-10,o),
(1363,42,o),
(1363,108,cs),
(1363,172,o),
(1312,225,o),
(1247,225,cs),
(1243,225,o),
(1240,222,o),
(1240,218,cs),
(1240,214,o),
(1243,210,o),
(1247,210,cs),
(1305,210,o),
(1348,164,o),
(1348,108,cs),
(1348,49,o),
(1301,6,o),
(1240,6,cs),
(1188,6,o),
(1141,41,o),
(1111,126,cs),
(874,792,l),
(832,783,l),
(1114,783,ls),
(1175,783,o),
(1222,739,o),
(1222,680,cs),
(1222,621,o),
(1175,578,o),
(1114,578,cs),
(1055,578,o),
(1012,621,o),
(1012,680,cs),
(1012,684,o),
(1008,688,o),
(1004,688,cs),
(1000,688,o),
(997,684,o),
(997,680,cs),
(997,614,o),
(1048,563,o),
(1114,563,cs),
(1182,563,o),
(1237,614,o),
(1237,680,cs),
(1237,746,o),
(1182,798,o),
(1114,798,cs),
(298,798,ls),
(230,798,o),
(176,746,o),
(176,680,cs),
(176,614,o),
(230,563,o),
(298,563,cs),
(364,563,o),
(416,614,o),
(416,680,cs),
(416,684,o),
(412,688,o),
(408,688,cs),
(404,688,o),
(401,684,o),
(401,680,cs),
(401,621,o),
(357,578,o),
(298,578,cs),
(237,578,o),
(191,621,o),
(191,680,cs),
(191,739,o),
(237,783,o),
(298,783,cs),
(580,783,l),
(538,792,l),
(301,126,ls),
(271,42,o),
(224,6,o),
(172,6,cs),
(111,6,o),
(65,49,o),
(65,108,cs),
(65,164,o),
(107,207,o),
(165,210,c),
(169,211,o),
(172,214,o),
(172,218,cs),
(172,222,o),
(169,225,o),
(165,225,cs)
);
},
{
closed = 1;
nodes = (
(334,34,o),
(386,-10,o),
(444,-10,cs),
(512,-10,o),
(567,42,o),
(567,108,cs),
(567,174,o),
(512,226,o),
(444,226,cs),
(440,226,o),
(437,222,o),
(437,218,cs),
(437,214,o),
(440,211,o),
(444,211,cs),
(505,211,o),
(552,167,o),
(552,108,cs),
(552,49,o),
(505,6,o),
(444,6,cs),
(392,6,o),
(346,43,o),
(315,126,c),
(301,120,l)
);
},
{
closed = 1;
nodes = (
(900,226,o),
(846,174,o),
(846,108,cs),
(846,42,o),
(900,-10,o),
(968,-10,cs),
(1026,-10,o),
(1078,34,o),
(1111,120,c),
(1097,126,l),
(1066,43,o),
(1020,6,o),
(968,6,cs),
(907,6,o),
(861,49,o),
(861,108,cs),
(861,167,o),
(907,211,o),
(968,211,cs),
(972,211,o),
(976,214,o),
(976,218,cs),
(976,222,o),
(972,226,o),
(968,226,cs)
);
},
{
closed = 1;
nodes = (
(1214,501,o),
(1252,453,o),
(1252,406,cs),
(1252,359,o),
(1217,316,o),
(1138,316,cs),
(1013,316,o),
(899,444,o),
(780,444,cs),
(660,444,o),
(631,314,o),
(631,235,cs),
(631,165,o),
(663,109,o),
(711,109,cs),
(757,109,o),
(789,165,o),
(789,235,cs),
(789,314,o),
(760,444,o),
(641,444,cs),
(521,444,o),
(387,316,o),
(263,316,cs),
(203,316,o),
(160,355,o),
(160,408,cs),
(160,461,o),
(203,501,o),
(263,501,cs),
(316,501,o),
(365,463,o),
(365,408,cs),
(365,404,o),
(368,401,o),
(373,401,cs),
(377,401,o),
(380,404,o),
(380,408,cs),
(380,472,o),
(322,516,o),
(263,516,cs),
(197,516,o),
(145,468,o),
(145,408,cs),
(145,348,o),
(197,301,o),
(263,301,cs),
(394,301,o),
(528,429,o),
(641,429,cs),
(748,429,o),
(774,312,o),
(774,235,cs),
(774,170,o),
(747,124,o),
(711,124,cs),
(673,124,o),
(646,170,o),
(646,235,cs),
(646,312,o),
(672,429,o),
(780,429,cs),
(892,429,o),
(1006,301,o),
(1138,301,cs),
(1225,301,o),
(1267,352,o),
(1267,406,cs),
(1267,460,o),
(1222,516,o),
(1138,516,cs),
(1133,516,o),
(1130,512,o),
(1130,508,cs),
(1130,504,o),
(1133,501,o),
(1138,501,cs)
);
}
);
width = 1413;
}
);
},
{
export = 0;
glyphname = A.003;
lastChange = "2022-03-10 01:10:29 +0000";
layers = (
{
background = {
shapes = (
{
closed = 1;
nodes = (
(100,225,o),
(50,172,o),
(50,108,cs),
(50,42,o),
(104,-10,o),
(172,-10,cs),
(226,-10,o),
(277,26,o),
(308,102,c),
(341,28,o),
(390,-10,o),
(444,-10,cs),
(512,-10,o),
(567,42,o),
(567,108,cs),
(567,174,o),
(512,226,o),
(444,226,cs),
(440,226,o),
(437,222,o),
(437,218,cs),
(437,214,o),
(440,211,o),
(444,211,cs),
(505,211,o),
(552,167,o),
(552,108,cs),
(552,49,o),
(505,6,o),
(444,6,cs),
(393,6,o),
(347,42,o),
(316,123,c),
(391,333,l),
(479,371,o),
(565,429,o),
(641,429,cs),
(663,429,o),
(681,424,o),
(697,416,c),
(646,373,o),
(631,291,o),
(631,235,cs),
(631,165,o),
(663,109,o),
(711,109,cs),
(757,109,o),
(789,165,o),
(789,235,cs),
(789,291,o),
(774,373,o),
(723,416,c),
(739,424,o),
(758,429,o),
(780,429,cs),
(858,429,o),
(937,367,o),
(1022,329,c),
(1096,123,l),
(1065,42,o),
(1019,6,o),
(968,6,cs),
(907,6,o),
(861,49,o),
(861,108,cs),
(861,167,o),
(907,211,o),
(968,211,cs),
(972,211,o),
(976,214,o),
(976,218,cs),
(976,222,o),
(972,226,o),
(968,226,cs),
(900,226,o),
(846,174,o),
(846,108,cs),
(846,42,o),
(900,-10,o),
(968,-10,cs),
(1022,-10,o),
(1071,28,o),
(1104,103,c),
(1136,26,o),
(1186,-10,o),
(1240,-10,cs),
(1308,-10,o),
(1363,42,o),
(1363,108,cs),
(1363,172,o),
(1312,225,o),
(1247,225,cs),
(1243,225,o),
(1240,222,o),
(1240,218,cs),
(1240,214,o),
(1243,210,o),
(1247,210,cs),
(1305,210,o),
(1348,164,o),
(1348,108,cs),
(1348,49,o),
(1301,6,o),
(1240,6,cs),
(1188,6,o),
(1141,41,o),
(1111,126,cs),
(1042,321,l),
(1073,309,o),
(1105,301,o),
(1138,301,cs),
(1225,301,o),
(1267,352,o),
(1267,406,cs),
(1267,460,o),
(1222,516,o),
(1138,516,cs),
(1133,516,o),
(1130,512,o),
(1130,508,cs),
(1130,504,o),
(1133,501,o),
(1138,501,cs),
(1214,501,o),
(1252,453,o),
(1252,406,cs),
(1252,359,o),
(1217,316,o),
(1138,316,cs),
(1103,316,o),
(1068,326,o),
(1035,341,c),
(877,783,l),
(1114,783,ls),
(1175,783,o),
(1222,739,o),
(1222,680,cs),
(1222,621,o),
(1175,578,o),
(1114,578,cs),
(1055,578,o),
(1012,621,o),
(1012,680,cs),
(1012,684,o),
(1008,688,o),
(1004,688,cs),
(1000,688,o),
(997,684,o),
(997,680,cs),
(997,614,o),
(1048,563,o),
(1114,563,cs),
(1182,563,o),
(1237,614,o),
(1237,680,cs),
(1237,746,o),
(1182,798,o),
(1114,798,cs),
(298,798,ls),
(230,798,o),
(176,746,o),
(176,680,cs),
(176,614,o),
(230,563,o),
(298,563,cs),
(364,563,o),
(416,614,o),
(416,680,cs),
(416,684,o),
(412,688,o),
(408,688,cs),
(404,688,o),
(401,684,o),
(401,680,cs),
(401,621,o),
(357,578,o),
(298,578,cs),
(237,578,o),
(191,621,o),
(191,680,cs),
(191,739,o),
(237,783,o),
(298,783,cs),
(535,783,l),
(379,345,l),
(340,328,o),
(301,316,o),
(263,316,cs),
(203,316,o),
(160,355,o),
(160,408,cs),
(160,461,o),
(203,501,o),
(263,501,cs),
(316,501,o),
(365,463,o),
(365,408,cs),
(365,404,o),
(368,401,o),
(373,401,cs),
(377,401,o),
(380,404,o),
(380,408,cs),
(380,472,o),
(322,516,o),
(263,516,cs),
(197,516,o),
(145,468,o),
(145,408,cs),
(145,348,o),
(197,301,o),
(263,301,cs),
(299,301,o),
(336,311,o),
(372,325,c),
(301,126,ls),
(271,42,o),
(224,6,o),
(172,6,cs),
(111,6,o),
(65,49,o),
(65,108,cs),
(65,164,o),
(107,207,o),
(165,210,c),
(169,211,o),
(172,214,o),
(172,218,cs),
(172,222,o),
(169,225,o),
(165,225,cs)
);
},
{
closed = 1;
nodes = (
(552,783,l),
(860,783,l),
(1015,350,l),
(936,388,o),
(859,444,o),
(780,444,cs),
(752,444,o),
(729,437,o),
(710,425,c),
(692,437,o),
(669,444,o),
(641,444,cs),
(564,444,o),
(481,391,o),
(398,353,c)
);
},
{
closed = 1;
nodes = (
(646,292,o),
(660,370,o),
(710,407,c),
(760,370,o),
(774,292,o),
(774,235,cs),
(774,170,o),
(747,124,o),
(711,124,cs),
(673,124,o),
(646,170,o),
(646,235,cs)
);
}
);
};
layerId = m01;
shapes = (
{
closed = 1;
nodes = (
(100,225,o),
(50,172,o),
(50,108,cs),
(50,42,o),
(104,-10,o),
(172,-10,cs),
(226,-10,o),
(277,26,o),
(308,102,c),
(341,28,o),
(390,-10,o),
(444,-10,cs),
(512,-10,o),
(567,42,o),
(567,108,cs),
(567,174,o),
(512,226,o),
(444,226,cs),
(440,226,o),
(437,222,o),
(437,218,cs),
(437,214,o),
(440,211,o),
(444,211,cs),
(505,211,o),
(552,167,o),
(552,108,cs),
(552,49,o),
(505,6,o),
(444,6,cs),
(393,6,o),
(347,42,o),
(316,123,c),
(391,333,l),
(479,371,o),
(565,429,o),
(641,429,cs),
(663,429,o),
(681,424,o),
(697,416,c),
(646,373,o),
(631,291,o),
(631,235,cs),
(631,165,o),
(663,109,o),
(711,109,cs),
(757,109,o),
(789,165,o),
(789,235,cs),
(789,291,o),
(774,373,o),
(723,416,c),
(739,424,o),
(758,429,o),
(780,429,cs),
(858,429,o),
(937,367,o),
(1022,329,c),
(1096,123,l),
(1065,42,o),
(1019,6,o),
(968,6,cs),
(907,6,o),
(861,49,o),
(861,108,cs),
(861,167,o),
(907,211,o),
(968,211,cs),
(972,211,o),
(976,214,o),
(976,218,cs),
(976,222,o),
(972,226,o),
(968,226,cs),
(900,226,o),
(846,174,o),
(846,108,cs),
(846,42,o),
(900,-10,o),
(968,-10,cs),
(1022,-10,o),
(1071,28,o),
(1104,103,c),
(1136,26,o),
(1186,-10,o),
(1240,-10,cs),
(1308,-10,o),
(1363,42,o),
(1363,108,cs),
(1363,172,o),
(1312,225,o),
(1247,225,cs),
(1243,225,o),
(1240,222,o),
(1240,218,cs),
(1240,214,o),
(1243,210,o),
(1247,210,cs),
(1305,210,o),
(1348,164,o),
(1348,108,cs),
(1348,49,o),
(1301,6,o),
(1240,6,cs),
(1188,6,o),
(1141,41,o),
(1111,126,cs),
(1042,321,l),
(1073,309,o),
(1105,301,o),
(1138,301,cs),
(1225,301,o),
(1267,352,o),
(1267,406,cs),
(1267,460,o),
(1222,516,o),
(1138,516,cs),
(1133,516,o),
(1130,512,o),
(1130,508,cs),
(1130,504,o),
(1133,501,o),
(1138,501,cs),
(1214,501,o),
(1252,453,o),
(1252,406,cs),
(1252,359,o),
(1217,316,o),
(1138,316,cs),
(1103,316,o),
(1068,326,o),
(1035,341,c),
(877,783,l),
(1114,783,ls),
(1175,783,o),
(1222,739,o),
(1222,680,cs),
(1222,621,o),
(1175,578,o),
(1114,578,cs),
(1055,578,o),
(1012,621,o),
(1012,680,cs),
(1012,684,o),
(1008,688,o),
(1004,688,cs),
(1000,688,o),
(997,684,o),
(997,680,cs),
(997,614,o),
(1048,563,o),
(1114,563,cs),
(1182,563,o),
(1237,614,o),
(1237,680,cs),
(1237,746,o),
(1182,798,o),
(1114,798,cs),
(298,798,ls),
(230,798,o),
(176,746,o),
(176,680,cs),
(176,614,o),
(230,563,o),
(298,563,cs),
(364,563,o),
(416,614,o),
(416,680,cs),
(416,684,o),
(412,688,o),
(408,688,cs),
(404,688,o),
(401,684,o),
(401,680,cs),
(401,621,o),
(357,578,o),
(298,578,cs),
(237,578,o),
(191,621,o),
(191,680,cs),
(191,739,o),
(237,783,o),
(298,783,cs),
(535,783,l),
(379,345,l),
(340,328,o),
(301,316,o),
(263,316,cs),
(203,316,o),
(160,355,o),
(160,408,cs),
(160,461,o),
(203,501,o),
(263,501,cs),
(316,501,o),
(365,463,o),
(365,408,cs),
(365,404,o),
(368,401,o),
(373,401,cs),
(377,401,o),
(380,404,o),
(380,408,cs),
(380,472,o),
(322,516,o),
(263,516,cs),
(197,516,o),
(145,468,o),
(145,408,cs),
(145,348,o),
(197,301,o),
(263,301,cs),
(299,301,o),
(336,311,o),
(372,325,c),
(301,126,ls),
(271,42,o),
(224,6,o),
(172,6,cs),
(111,6,o),
(65,49,o),
(65,108,cs),
(65,164,o),
(107,207,o),
(165,210,c),
(169,211,o),
(172,214,o),
(172,218,cs),
(172,222,o),
(169,225,o),
(165,225,cs)
);
},
{
closed = 1;
nodes = (
(552,783,l),
(860,783,l),
(1015,350,l),
(936,388,o),
(859,444,o),
(780,444,cs),
(752,444,o),
(729,437,o),
(710,425,c),
(692,437,o),
(669,444,o),
(641,444,cs),
(564,444,o),
(481,391,o),
(398,353,c)
);
},
{
closed = 1;
nodes = (
(646,292,o),
(660,370,o),
(710,407,c),
(760,370,o),
(774,292,o),
(774,235,cs),
(774,170,o),
(747,124,o),
(711,124,cs),
(673,124,o),
(646,170,o),
(646,235,cs)
);
}
);
width = 1413;
},
{
layerId = m002;
width = 1413;
}
);
},
{
export = 0;
glyphname = C.001;
lastChange = "2022-03-10 01:10:29 +0000";
layers = (
{
layerId = m01;
shapes = (
{
closed = 1;
nodes = (
(181,715,o),
(40,564,o),
(40,350,cs),
(40,135,o),
(175,-16,o),
(366,-16,cs),
(489,-16,o),
(578,10,o),
(655,51,c),
(655,281,l),
(607,245,o),
(551,224,o),
(500,224,cs),
(424,224,o),
(360,266,o),
(360,355,cs),
(360,428,o),
(405,485,o),
(463,485,cs),
(525,485,o),
(549,435,o),
(549,395,c),
(672,458,l),
(535,521,l),
(456,521,o),
(422,399,o),
(422,322,c),
(652,322,l),
(674,354,o),
(692,418,o),
(692,469,cs),
(692,630,o),
(589,715,o),
(382,715,cs)
);
}
);
width = 732;
},
{
layerId = m002;
width = 600;
}
);
},
{
glyphname = f;
lastChange = "2022-03-13 02:34:35 +0000";
layers = (
{
layerId = m01;
shapes = (
{
closed = 1;
nodes = (
(527.792,333,o),
(557,304.783,o),
(557,263,cs),
(557,215.622,o),
(517,170,o),
(372.04,149.513,cs),
(128,115,o),
(10,-1.289,o),
(10,-102,cs),
(10,-183,o),
(79,-240,o),
(176,-240,cs),
(568.989,-240,o),
(444.989,705,o),
(732,705,cs),
(759.614,705,o),
(782,727.386,o),
(782,755,cs),
(782,782.614,o),
(759.614,805,o),
(732,805,cs),
(331.011,805,o),
(455.011,-140,o),
(176,-140,cs),
(135,-140,o),
(110,-125,o),
(110,-102,cs),
(110,-50.711,o),
(183,22,o),
(385.96,50.487,cs),
(576,77,o),
(657,171.178,o),
(657,263,cs),
(657,354.217,o),
(575.208,433,o),
(460,433,cs),
(432.386,433,o),
(410,410.614,o),
(410,383,cs),
(410,355.386,o),
(432.386,333,o),
(460,333,cs)
);
},
{
closed = 1;
nodes = (
(240,468,ls),
(212.386,468,o),
(190,445.614,o),
(190,418,cs),
(190,390.386,o),
(212.386,368,o),
(240,368,cs),
(728,368,ls),
(755.614,368,o),
(778,390.386,o),
(778,418,cs),
(778,445.614,o),
(755.614,468,o),
(728,468,cs)
);
}
);
width = 792;
},
{
background = {
shapes = (
{
closed = 1;
nodes = (
(742,333,o),
(771,305,o),
(771,263,cs),
(771,216,o),
(731,170,o),
(586,150,cs),
(342,115,o),
(224,-1,o),
(224,-102,cs),
(224,-183,o),
(293,-240,o),
(390,-240,cs),
(783,-240,o),
(659,705,o),
(946,705,cs),
(974,705,o),
(996,727,o),
(996,755,cs),
(996,783,o),
(974,805,o),
(946,805,cs),
(545,805,o),
(669,-140,o),
(390,-140,cs),
(349,-140,o),
(324,-125,o),
(324,-102,cs),
(324,-51,o),
(397,22,o),
(600,50,cs),
(790,77,o),
(871,171,o),
(871,263,cs),
(871,354,o),
(789,433,o),
(674,433,cs),
(646,433,o),
(624,411,o),
(624,383,cs),
(624,355,o),
(646,333,o),
(674,333,cs)
);
},
{
closed = 1;
nodes = (
(454,468,ls),
(426,468,o),
(404,446,o),
(404,418,cs),
(404,390,o),
(426,368,o),
(454,368,cs),
(942,368,ls),
(970,368,o),
(992,390,o),
(992,418,cs),
(992,446,o),
(970,468,o),
(942,468,cs)
);
}
);
};
layerId = m002;
shapes = (
{
closed = 1;
nodes = (
(812,357,o),
(887,332,o),
(887,287,cs),
(887,219,o),
(766,170,o),
(549,150,cs),
(113,111,o),
(10,21,o),
(10,-89,cs),
(10,-169,o),
(107,-240,o),
(224,-240,cs),
(887,-240,o),
(566,702,o),
(1040,702,cs),
(1068,702,o),
(1090,724,o),
(1090,752,cs),
(1090,780,o),
(1068,802,o),
(1040,802,cs),
(423,802,o),
(833,-140,o),
(199,-140,cs),
(149,-140,o),
(110,-123,o),
(110,-83,cs),
(110,-24,o),
(308,27,o),
(559,50,cs),
(834,75,o),
(987,160,o),
(987,287,cs),
(987,396,o),
(877,457,o),
(679,457,cs),
(651,457,o),
(629,435,o),
(629,407,cs),
(629,379,o),
(651,357,o),
(679,357,cs)
);
},
{
closed = 1;
nodes = (
(338,469,ls),
(310,469,o),
(288,447,o),
(288,419,cs),
(288,391,o),
(310,369,o),
(338,369,cs),
(1094,369,ls),
(1122,369,o),
(1144,391,o),
(1144,419,cs),
(1144,447,o),
(1122,469,o),
(1094,469,cs)
);
}
);
width = 1154;
}
);
unicode = 102;
},
{
glyphname = i;
lastChange = "2022-03-15 23:40:33 +0000";
layers = (
{
layerId = m01;
shapes = (
{
closed = 1;
nodes = (
(179,-28,o),
(432,-28,o),
(515,0,c),
(488,120,o),
(474,170,o),
(474,250,cs),
(474,322,o),
(488,380,o),
(515,500,c),
(431,528,o),
(177,528,o),
(93,500,c),
(120,388,o),
(134,330,o),
(134,250,cs),
(134,170,o),
(121,120,o),
(93,0,c)
);
},
{
closed = 1;
nodes = (
(169,559,o),
(443,559,o),
(533,571,c),
(533,761,l),
(442,773,o),
(166,773,o),
(75,761,c),
(75,571,l)
);
}
);
width = 608;
},
{
layerId = m002;
shapes = (
{
closed = 1;
nodes = (
(204,-28,o),
(257,-28,o),
(340,0,c),
(313,120,o),
(299,170,o),
(299,250,cs),
(299,322,o),
(313,380,o),
(340,500,c),
(256,528,o),
(202,528,o),
(118,500,c),
(145,388,o),
(159,330,o),
(159,250,cs),
(159,170,o),
(146,120,o),
(118,0,c)
);
},
{
closed = 1;
nodes = (
(194,589,o),
(268,589,o),
(358,601,c),
(358,711,l),
(267,723,o),
(191,723,o),
(100,711,c),
(100,601,l)
);
}
);
width = 458;
}
);
unicode = 105;
},
{
glyphname = k;
lastChange = "2022-03-17 19:36:13 +0000";
layers = (
{
layerId = m01;
shapes = (
{
closed = 1;
nodes = (
(172,335,l),
(242,385,o),
(334,413,o),
(433,413,cs),
(473,413,o),
(519,386,o),
(519,345,cs),
(519,280,o),
(451,236,o),
(378,236,cs),
(297,236,o),
(243,262,o),
(243,300,c),
(242,299,l),
(242,222,o),
(332,159,o),
(472,159,cs),
(545,159,o),
(594,196,o),
(594,251,c),
(593,251,l),
(593,220,o),
(547,199,o),
(477,199,cs),
(345,199,o),
(243,242,o),
(243,299,c),
(243,292,l),
(243,255,o),
(301,216,o),
(371,216,cs),
(460,216,o),
(539,277,o),
(539,369,cs),
(539,419,o),
(489,453,o),
(445,453,cs),
(337,453,o),
(236,420,o),
(162,361,c)
);
},
{
closed = 1;
nodes = (
(500,2,o),
(561,79,o),
(561,192,c),
(541,186,l),
(541,98,o),
(496,40,o),
(429,40,cs),
(360,40,o),
(314,83,o),
(314,148,cs),
(314,188,o),
(339,253,o),
(377,312,cs),
(429,393,o),
(463,475,o),
(463,515,cs),
(463,566,o),
(437,600,o),
(397,600,cs),
(273,600,o),
(190,390,o),
(190,352,c),
(205,357,l),
(205,392,o),
(282,560,o),
(386,560,cs),
(423,560,o),
(443,539,o),
(443,507,cs),
(443,469,o),
(413,395,o),
(367,322,cs),
(323,251,o),
(294,178,o),
(294,139,cs),
(294,54,o),
(340,-2,o),
(409,0,cs)
);
},
{
closed = 1;
nodes = (
(162,361,l),
(81,298,o),
(30,205,o),
(30,93,cs),
(30,37,o),
(53,0,o),
(105,0,cs),
(171,0,o),
(220,66,o),
(220,165,cs),
(220,307,o),
(116,508,o),
(116,661,cs),
(116,720,o),
(145,760,o),
(207,760,cs),
(239,760,o),
(266,735,o),
(266,698,cs),
(266,593,o),
(166,390,o),
(166,374,c),
(183,365,l),
(183,387,o),
(286,594,o),
(286,709,cs),
(286,764,o),
(251,800,o),
(205,800,cs),
(133,800,o),
(96,740,o),
(96,650,cs),
(96,450,o),
(200,277,o),
(200,149,cs),
(200,84,o),
(167,40,o),
(124,40,cs),
(73,40,o),
(50,67,o),
(50,107,cs),
(50,203,o),
(98,281,o),
(172,335,c)
);
}
);
width = 600;
},
{
layerId = m002;
shapes = (
{
closed = 1;
nodes = (
(176,335,l),
(238,385,o),
(306,413,o),
(339,413,cs),
(377,413,o),
(397,378,o),
(397,356,cs),
(397,342,o),
(344,249,o),
(294,249,cs),
(282,249,o),
(243,262,o),
(243,300,c),
(242,299,l),
(242,222,o),
(332,159,o),
(472,159,cs),
(545,159,o),
(594,196,o),
(594,251,c),
(593,251,l),
(593,220,o),
(547,199,o),
(477,199,cs),
(345,199,o),
(243,242,o),
(243,299,c),
(243,292,l),
(243,255,o),
(301,216,o),
(371,216,cs),
(460,216,o),
(539,277,o),
(539,369,cs),
(539,419,o),
(489,453,o),
(445,453,cs),
(336,453,o),
(236,419,o),
(161,360,c)
);
},
{
closed = 1;
nodes = (
(500,2,o),
(561,79,o),
(561,192,c),
(543,199,l),
(541,173,o),
(496,167,o),
(429,167,cs),
(406,167,o),
(314,182,o),
(314,210,cs),
(314,228,o),
(339,253,o),
(377,312,cs),
(429,393,o),
(463,475,o),
(463,515,cs),
(463,566,o),
(437,600,o),
(397,600,cs),
(273,600,o),
(190,390,o),
(190,365,c),
(205,365,l),
(205,392,o),
(282,441,o),
(386,441,cs),
(423,441,o),
(422,435,o),
(422,426,cs),
(422,419,o),
(413,395,o),
(367,322,cs),
(323,251,o),
(294,178,o),
(294,139,cs),
(294,54,o),
(340,-2,o),
(409,0,cs)
);
},
{
closed = 1;
nodes = (
(161,360,l),
(81,297,o),
(30,205,o),
(30,93,cs),
(30,37,o),
(53,0,o),
(105,0,cs),
(171,0,o),
(220,66,o),
(220,165,cs),
(220,307,o),
(116,508,o),
(116,635,cs),
(116,649,o),
(116,660,o),
(111,660,cs),
(108,660,o),
(109,650,o),
(109,634,cs),
(109,550,o),
(166,390,o),
(166,374,c),
(183,365,l),
(183,387,o),
(286,594,o),
(286,709,cs),
(286,764,o),
(251,800,o),
(205,800,cs),
(133,800,o),
(96,740,o),
(96,650,cs),
(96,450,o),
(168,273,o),
(168,145,cs),
(168,133,o),
(176,122,o),
(193,122,cs),
(212,122,o),
(211,137,o),
(211,150,cs),
(211,215,o),
(188,302,o),
(176,335,c)
);
}
);
width = 600;
}
);
unicode = 107;
},
{
glyphname = t;
lastChange = "2022-03-28 21:26:15 +0000";
layers = (
{
layerId = m01;
shapes = (
{
closed = 1;
nodes = (
(376,-10,o),
(435,28,o),
(435,83,c),
(420,83,l),
(420,58,o),
(367,40,o),
(291,40,cs),
(207,40,o),
(148,81,o),
(148,140,cs),
(148,426,ls),
(148,467,o),
(158,480,o),
(189,480,cs),
(434,480,l),
(434,520,l),
(189,520,ls),
(158,520,o),
(148,534,o),
(148,574,cs),
(148,594,l),
(133,594,l),
(133,574,ls),
(133,534,o),
(120,520,o),
(80,520,c),
(80,480,l),
(120,480,o),
(133,467,o),
(133,426,cs),
(133,140,ls),
(133,52,o),
(198,-10,o),
(291,-10,cs)
);
}
);
width = 600;
},
{
layerId = m002;
shapes = (
{
closed = 1;
nodes = (
(437,-10,o),
(484,53,o),
(484,218,c),
(423,218,l),
(423,197,o),
(398,190,o),
(323,190,cs),
(226,190,o),
(194,205,o),
(192,250,cs),
(192,274,ls),
(192,316,o),
(218,330,o),
(294,330,cs),
(490,330,l),
(490,520,l),
(294,520,ls),
(218,520,o),
(192,534,o),
(192,576,cs),
(192,604,l),
(132,604,l),
(132,576,ls),
(132,534,o),
(107,520,o),
(30,520,c),
(30,330,l),
(107,330,o),
(132,316,o),
(132,274,cs),
(132,248,ls),
(132,62,o),
(183,-10,o),
(315,-10,cs)
);
}
);
width = 600;
}
);
unicode = 116;
},
{
export = 0;
glyphname = f.001;
lastChange = "2022-03-13 02:28:34 +0000";
layers = (
{
layerId = m01;
shapes = (
{
attr = {
lineCapEnd = "1";
lineCapStart = "1";
strokeWidth = 100;
};
closed = 0;
nodes = (
(732,755,l),
(388,755,o),
(512,-190,o),
(176,-190,cs),
(111,-190,o),
(60,-151,o),
(60,-102,cs),
(60,-30,o),
(159,69,o),
(379,100,cs),
(700,146,o),
(639,383,o),
(460,383,c)
);
},
{
attr = {
lineCapEnd = "1";
lineCapStart = "1";
strokeWidth = 100;
};
closed = 0;
nodes = (
(240,418,l),
(728,418,l)
);
}
);
width = 600;
},
{
layerId = m002;
width = 600;
}
);
},
{
glyphname = zero;
lastChange = "2022-04-05 01:47:41 +0000";
layers = (
{
layerId = m01;
shapes = (
{
closed = 1;
nodes = (
(110,-1,o),
(286,-1,cs),
(426,-1,o),
(514,113,o),
(514,295,cs),
(514,466,o),
(401,553,o),
(300,553,cs),
(218,553,o),
(145,497,o),
(145,383,cs),
(145,287,o),
(195,216,o),
(286,216,cs),
(305,216,o),
(316,232,o),
(316,249,cs),
(316,266,o),
(305,283,o),
(286,283,cs),
(235,283,o),
(212,324,o),
(212,383,cs),
(212,452,o),
(255,487,o),
(304,487,cs),
(371,487,o),
(448,424,o),
(448,296,cs),
(448,155,o),
(386,66,o),
(286,66,cs),
(151,66,o),
(67,188,o),
(67,383,cs),
(67,579,o),
(157,716,o),
(286,716,cs),
(411,716,o),
(499,633,o),
(499,516,cs),
(499,495,o),
(517,485,o),
(532,485,cs),
(550,485,o),
(566,497,o),
(566,520,cs),
(566,673,o),
(450,780,o),
(286,780,cs),
(118,780,o),
(0,616,o),
(0,383,cs),
(0,147,o)
);
}
);
width = 566;
},
{
layerId = m002;
shapes = (
{
closed = 1;
nodes = (
(135,-1,o),
(326,-1,cs),
(489,-1,o),
(604,121,o),
(604,295,cs),
(604,476,o),
(499,603,o),
(350,603,cs),
(253,603,o),
(185,512,o),
(185,383,cs),
(185,261,o),
(251,176,o),
(346,176,cs),
(387,176,o),
(416,206,o),
(416,249,cs),
(416,292,o),
(387,323,o),
(346,323,cs),
(320,323,o),
(302,348,o),
(302,383,cs),
(302,421,o),
(319,447,o),
(344,447,cs),
(405,447,o),
(448,385,o),
(448,296,cs),
(448,208,o),
(398,146,o),
(326,146,cs),
(227,146,o),
(157,244,o),
(157,383,cs),
(157,578,o),
(269,638,o),
(375,638,cs),
(469,638,o),
(559,590,o),
(559,546,cs),
(559,504,o),
(589,475,o),
(632,475,cs),
(675,475,o),
(706,506,o),
(706,550,cs),
(706,686,o),
(542,781,o),
(373,781,cs),
(190,781,o),
(0,671,o),
(0,383,cs),
(0,158,o)
);
}
);
width = 706;
}
);
unicode = 48;
},
{
glyphname = one;
lastChange = "2022-04-05 01:51:33 +0000";
layers = (
{
layerId = m01;
shapes = (
{
closed = 1;
nodes = (
(103,648,o),
(59,505,o),
(59,378,cs),
(59,249,o),
(83,84,o),
(101,64,c),
(170,133,l),
(148,142,o),
(119,215,o),
(119,379,cs),
(119,593,o),
(172,700,o),
(172,701,c),
(158,702,o),
(126,724,o),
(105,740,c),
(46,681,l),
(79,666,o),
(129,646,o),
(144,645,c),
(150,648,l)
);
},
{
closed = 1;
nodes = (
(212,59,l),
(192,70,o),
(132,84,o),
(44,85,c),
(0,19,l),
(77,18,o),
(132,8,o),
(153,0,c)
);
}
);
width = 212;
},
{
layerId = m002;
shapes = (
{
closed = 1;
nodes = (
(260,481,o),
(154,417,o),
(154,304,cs),
(154,293,o),
(155,261,o),
(157,249,c),
(372,308,l),
(359,313,o),
(351,383,o),
(351,445,cs),
(351,542,o),
(372,668,o),
(432,701,c),
(418,702,o),
(86,724,o),
(65,740,c),
(6,481,l),
(39,466,o),
(320,416,o),
(335,415,c),
(332,481,l)
);
},
{
closed = 1;
nodes = (
(412,259,l),
(392,270,o),
(132,284,o),
(44,285,c),
(0,19,l),
(77,18,o),
(332,8,o),
(353,0,c)
);
}
);
width = 432;
}
);
unicode = 49;
},
{
glyphname = two;
lastChange = "2022-04-06 14:52:34 +0000";
layers = (
{
layerId = m01;
shapes = (
{
closed = 1;
nodes = (
(536,259,o),
(630,404,o),
(630,559,cs),
(630,724,o),
(528,812,o),
(410,812,cs),
(370,812,o),
(328,801,o),
(287,777,c),
(367,759,l),
(332,779,o),
(262,794,o),
(208,794,cs),
(94,794,o),
(4,699,o),
(4,577,cs),
(4,477,o),
(80,398,o),
(177,398,c),
(265,398,o),
(335,466,o),
(335,552,cs),
(335,610,o),
(288,655,o),
(229,655,c),
(194,542,l),
(265,542,o),
(301,591,o),
(301,642,cs),
(301,694,o),
(262,748,o),
(181,748,cs),
(111,748,o),
(42,697,o),
(24,633,c),
(26,631,l),
(43,713,o),
(125,779,o),
(211,779,cs),
(321,779,o),
(407,675,o),
(407,542,cs),
(407,420,o),
(313,322,o),
(193,319,c),
(204,310,l),
(263,310,o),
(277,259,o),
(417,259,cs)
);
},
{
closed = 1;
nodes = (
(162,-2,o),
(212,40,o),
(212,122,c),
(149,122,l),
(149,82,o),
(191,50,o),
(229,50,cs),
(262,50,o),
(293,74,o),
(293,138,cs),
(292,225,o),
(237,293,o),
(165,293,cs),
(92,293,o),
(24,234,o),
(11,159,c),
(17,157,l),
(28,240,o),
(96,306,o),
(171,306,cs),
(339,306,o),
(294,0,o),
(478,0,cs),
(569,0,o),
(640,56,o),
(640,127,cs),
(640,194,o),
(594,246,o),
(536,246,c),
(510,157,l),
(583,157,o),
(640,266,o),
(639,405,c),
(599,310,o),
(503,235,o),
(421,235,cs),
(277,235,o),
(273,321,o),
(186,321,cs),
(82,321,o),
(0,243,o),
(0,143,cs),
(0,45,o),
(56,-2,o),
(111,-2,cs)
);
}
);
width = 640;
},
{
layerId = m002;
shapes = (
{
closed = 1;
nodes = (
(536,259,o),
(630,394,o),
(630,553,cs),
(630,714,o),
(528,812,o),
(410,812,cs),
(370,812,o),
(328,801,o),
(287,777,c),
(367,759,l),
(332,779,o),
(262,794,o),
(208,794,cs),
(94,794,o),
(4,699,o),
(4,577,cs),
(4,454,o),
(98,358,o),
(217,358,cs),
(305,358,o),
(425,466,o),
(425,552,cs),
(425,610,o),
(378,655,o),
(319,655,c),
(284,542,l),
(355,542,o),
(391,591,o),
(391,642,cs),
(391,694,o),
(285,785,o),
(204,785,cs),
(134,785,o),
(24,719,o),
(24,633,c),
(26,631,l),
(43,713,o),
(125,779,o),
(211,779,cs),
(321,779,o),
(377,675,o),
(377,542,cs),
(377,420,o),
(313,322,o),
(193,319,c),
(204,310,l),
(263,310,o),
(277,259,o),
(440,259,cs)
);
},
{
closed = 1;
nodes = (
(182,-2,o),
(232,40,o),
(232,122,c),
(169,122,l),
(169,82,o),
(211,50,o),
(249,50,cs),
(282,50,o),
(345,74,o),
(345,138,cs),
(344,225,o),
(237,309,o),
(165,309,cs),
(92,309,o),
(24,234,o),
(11,159,c),
(17,157,l),
(28,240,o),
(96,306,o),
(171,306,cs),
(339,306,o),
(294,0,o),
(478,0,cs),
(569,0,o),
(640,56,o),
(640,127,cs),
(640,194,o),
(630,246,o),
(572,246,c),
(562,157,l),
(635,157,o),
(640,266,o),
(639,405,c),
(599,310,o),
(503,279,o),
(440,279,cs),
(366,279,o),
(273,321,o),
(186,321,cs),
(82,321,o),
(0,243,o),
(0,143,cs),
(0,45,o),
(76,-2,o),
(131,-2,cs)
);
}
);
width = 640;
}
);
unicode = 50;
},
{
export = 0;
glyphname = _segment.forma;
lastChange = "2022-04-04 03:07:03 +0000";
layers = (
{
layerId = m01;
shapes = (
{
closed = 0;
nodes = (
(33,20,l),
(272,-71,o),
(483,76,o),
(696,20,c)
);
}
);
width = 822;
},
{
layerId = m002;
shapes = (
{
closed = 0;
nodes = (
(33,20,l),
(241,69,o),
(507,-96,o),
(696,20,c)
);
}
);
width = 822;
}
);
},
{
glyphname = Aleft;
lastChange = "2022-03-07 22:31:23 +0000";
layers = (
{
layerId = m01;
shapes = (
{
attr = {
lineCapEnd = 2;
lineCapStart = 2;
strokeWidth = 15;
};
closed = 0;
nodes = (
(632,796,l),
(382,123,ls),
(350,38,o),
(301,-2,o),
(246,-2,cs),
(182,-2,o),
(131,46,o),
(131,108,cs),
(131,170,o),
(182,218,o),
(246,218,cs)
);
},
{
attr = {
lineCapEnd = 1;
lineCapStart = 1;
strokeWidth = 15;
};
closed = 0;
nodes = (
(703,790,l),
(412,790,ls),
(348,790,o),
(297,742,o),
(297,680,cs),
(297,618,o),
(348,570,o),
(412,570,cs),
(474,570,o),
(522,618,o),
(522,680,cs)
);
},
{
attr = {
lineCapEnd = 1;
lineCapStart = 1;
strokeWidth = 15;
};
closed = 0;
nodes = (
(518,218,l),
(582,218,o),
(633,170,o),
(633,108,cs),
(633,46,o),
(582,-2,o),
(518,-2,cs),
(463,-2,o),
(414,39,o),
(382,123,cs)
);
}
